<?xml version="1.0" encoding="UTF-8" standalone="no"?>
<!-- Created with Inkscape (http://www.inkscape.org/) -->

<svg
   xmlns:dc="http://purl.org/dc/elements/1.1/"
   xmlns:cc="http://creativecommons.org/ns#"
   xmlns:rdf="http://www.w3.org/1999/02/22-rdf-syntax-ns#"
   xmlns:svg="http://www.w3.org/2000/svg"
   xmlns="http://www.w3.org/2000/svg"
   xmlns:sodipodi="http://sodipodi.sourceforge.net/DTD/sodipodi-0.dtd"
   xmlns:inkscape="http://www.inkscape.org/namespaces/inkscape"
   id="svg2"
   version="1.1"
   inkscape:version="0.48.4 r9939"
   width="115"
   height="100"
   xml:space="preserve"
   sodipodi:docname="HLTLogo.eps"><metadata
     id="metadata8"><rdf:RDF><cc:Work
         rdf:about=""><dc:format>image/svg+xml</dc:format><dc:type
           rdf:resource="http://purl.org/dc/dcmitype/StillImage" /><dc:title></dc:title></cc:Work></rdf:RDF></metadata><defs
     id="defs6" /><sodipodi:namedview
     pagecolor="#ffffff"
     bordercolor="#666666"
     borderopacity="1"
     objecttolerance="10"
     gridtolerance="10"
     guidetolerance="10"
     inkscape:pageopacity="0"
     inkscape:pageshadow="2"
     inkscape:window-width="640"
     inkscape:window-height="480"
     id="namedview4"
     showgrid="false"
     inkscape:zoom="2.36"
     inkscape:cx="57.5"
     inkscape:cy="50"
     inkscape:window-x="0"
     inkscape:window-y="0"
     inkscape:window-maximized="0"
     inkscape:current-layer="g10" /><g
     id="g10"
     inkscape:groupmode="layer"
     inkscape:label="ink_ext_XXXXXX"
     transform="matrix(1.25,0,0,-1.25,0,100)"><g
       id="g12"
       transform="scale(0.1,0.1)"><path
         d="m 152.18,423.031 0,99.77 c 0,13.047 7.5,31.168 16.761,40.429 l 90.618,90.579 86.179,86.218 c 9.25,9.25 27.34,16.75 40.43,16.75 l 128.16,-0.039 121.91,0 c 13.09,0 31.18,-7.5 40.43,-16.75 l 90.629,-90.668 86.211,-86.211 c 9.219,-9.218 16.719,-27.339 16.719,-40.429 l 0,-128.16 0.039,-121.918 c 0,-13.082 -7.5,-31.168 -16.758,-40.43 L 762.875,141.594 676.668,55.3789 c -9.219,-9.2578 -27.34,-16.7578 -40.43,-16.7578 l -80.039,0.0391"
         style="fill:none;stroke:#b50000;stroke-opacity:1;stroke-width:67.3326;stroke-linecap:butt;stroke-linejoin:miter;stroke-miterlimit:10;stroke-dasharray:none"
         id="path14" /><path
         d="m 140.965,254.434 0,-117.95 45.43,0 0,259.77 -45.735,0 0,-97.281 -87.2264,0 0,97.281 -45.4336,0 0,-259.77 45.4336,0 0,117.95 87.5314,0"
         style="fill:#000000;fill-opacity:1;fill-rule:nonzero;stroke:none"
         id="path16" /><path
         d="m 275.941,396.254 -45.429,0 0,-259.77 151.136,0 0,44.543 -105.707,0 0,215.227"
         style="fill:#000000;fill-opacity:1;fill-rule:nonzero;stroke:none"
         id="path18" /><path
         d="m 55.1289,31.332 7.6641,-26.01169 10.6211,0 -26.1485,86.58599 -12.2578,0 -26.55858,-86.58599 10.11328,0 7.8633,26.01169 28.7031,0 m -2.6562,9.2657 -23.6954,0 12.2579,39.4336 11.4375,-39.4336"
         style="fill:#000000;fill-opacity:1;fill-rule:nonzero;stroke:none"
         id="path20" /><path
         d="m 467.059,621.43 0.011,0 0.008,-0.012 0.012,-0.027 0.027,-0.02 0.031,-0.043 0.032,-0.039 0.039,-0.051 0.051,-0.058 0.058,-0.059 0.059,-0.062 0.133,-0.149 0.168,-0.172 0.179,-0.179 0.211,-0.2 0.231,-0.199 0.25,-0.211 0.269,-0.211 0.289,-0.218 0.313,-0.211 0.34,-0.211 0.347,-0.2 0.363,-0.187 0.387,-0.184 0.41,-0.156 0.422,-0.152 0.43,-0.121 0.461,-0.098 0.23,-0.039 0.239,-0.031 0.238,-0.02 0.242,-0.019 0.25,-0.012 0.25,0 0.25,0.012 0.258,0.019 0.262,0.02 0.269,0.039 0.262,0.051 0.269,0.058 0.278,0.07 0.273,0.082 0.278,0.09 0.289,0.11 0.281,0.109 0.289,0.129 0.293,0.141 0.289,0.16 c 5.711,4.41 1.488,10.859 1.488,10.859 l -10.429,14.922 c 0,0 -4.418,6.328 -10.629,2.738 -5.621,-4.527 -1.829,-10.82 -1.829,-10.82 l 10.579,-15.238"
         style="fill:#000000;fill-opacity:1;fill-rule:nonzero;stroke:none"
         id="path22" /><path
         d="m 467.059,621.43 0.011,0 0.008,-0.012 0.012,-0.027 0.027,-0.02 0.031,-0.043 0.032,-0.039 0.039,-0.051 0.051,-0.058 0.058,-0.059 0.059,-0.062 0.133,-0.149 0.168,-0.172 0.179,-0.179 0.211,-0.2 0.231,-0.199 0.25,-0.211 0.269,-0.211 0.289,-0.218 0.313,-0.211 0.34,-0.211 0.347,-0.2 0.363,-0.187 0.387,-0.184 0.41,-0.156 0.422,-0.152 0.43,-0.121 0.461,-0.098 0.23,-0.039 0.239,-0.031 0.238,-0.02 0.242,-0.019 0.25,-0.012 0.25,0 0.25,0.012 0.258,0.019 0.262,0.02 0.269,0.039 0.262,0.051 0.269,0.058 0.278,0.07 0.273,0.082 0.278,0.09 0.289,0.11 0.281,0.109 0.289,0.129 0.293,0.141 0.289,0.16 c 5.711,4.41 1.488,10.859 1.488,10.859 l -10.429,14.922 c 0,0 -4.418,6.328 -10.629,2.738 -5.621,-4.527 -1.829,-10.82 -1.829,-10.82 l 10.579,-15.238 z"
         style="fill:none;stroke:none"
         id="path24" /><path
         d="m 484.758,587.211 0,0 0.012,-0.02 0,-0.023 0.019,-0.039 0.008,-0.039 0.023,-0.051 0.028,-0.059 0.019,-0.07 0.043,-0.07 0.028,-0.082 0.089,-0.188 0.102,-0.199 0.121,-0.23 0.129,-0.243 0.16,-0.257 0.168,-0.27 0.203,-0.281 0.207,-0.281 0.242,-0.289 0.258,-0.282 0.281,-0.277 0.301,-0.273 0.328,-0.258 0.352,-0.25 0.371,-0.242 0.199,-0.098 0.199,-0.11 0.211,-0.101 0.211,-0.09 0.219,-0.09 0.231,-0.078 0.238,-0.07 0.242,-0.063 0.25,-0.058 0.25,-0.051 0.27,-0.039 0.269,-0.031 0.27,-0.02 0.281,-0.008 0.297,-0.011 0.293,0.011 0.308,0.02 0.309,0.027 0.32,0.043 0.332,0.059 0.328,0.07 0.352,0.078 0.348,0.09 0.363,0.113 c 7.18,4.449 3.469,10.817 3.469,10.817 l -7.649,16.523 c 0,0 -2.39,7.34 -10,4.488 -6.961,-3.511 -3.672,-10.308 -3.672,-10.308 l 7.77,-16.84"
         style="fill:#000000;fill-opacity:1;fill-rule:nonzero;stroke:none"
         id="path26" /><path
         d="m 484.758,587.211 0,0 0.012,-0.02 0,-0.023 0.019,-0.039 0.008,-0.039 0.023,-0.051 0.028,-0.059 0.019,-0.07 0.043,-0.07 0.028,-0.082 0.089,-0.188 0.102,-0.199 0.121,-0.23 0.129,-0.243 0.16,-0.257 0.168,-0.27 0.203,-0.281 0.207,-0.281 0.242,-0.289 0.258,-0.282 0.281,-0.277 0.301,-0.273 0.328,-0.258 0.352,-0.25 0.371,-0.242 0.199,-0.098 0.199,-0.11 0.211,-0.101 0.211,-0.09 0.219,-0.09 0.231,-0.078 0.238,-0.07 0.242,-0.063 0.25,-0.058 0.25,-0.051 0.27,-0.039 0.269,-0.031 0.27,-0.02 0.281,-0.008 0.297,-0.011 0.293,0.011 0.308,0.02 0.309,0.027 0.32,0.043 0.332,0.059 0.328,0.07 0.352,0.078 0.348,0.09 0.363,0.113 c 7.18,4.449 3.469,10.817 3.469,10.817 l -7.649,16.523 c 0,0 -2.39,7.34 -10,4.488 -6.961,-3.511 -3.672,-10.308 -3.672,-10.308 l 7.77,-16.84 z"
         style="fill:none;stroke:none"
         id="path28" /><path
         d="m 496.949,550.531 0,-0.019 0.008,-0.024 0,-0.039 0.012,-0.051 0.008,-0.046 0.023,-0.063 0.008,-0.07 0.019,-0.078 0.032,-0.09 0.05,-0.192 0.071,-0.218 0.078,-0.25 0.101,-0.262 0.11,-0.277 0.129,-0.301 0.152,-0.301 0.168,-0.32 0.191,-0.321 0.207,-0.32 0.231,-0.32 0.25,-0.321 0.281,-0.308 0.309,-0.301 0.332,-0.289 0.179,-0.141 0.18,-0.14 0.192,-0.129 0.199,-0.129 0.199,-0.121 0.211,-0.11 0.219,-0.109 0.23,-0.101 0.238,-0.102 0.243,-0.086 0.25,-0.082 0.257,-0.082 0.274,-0.059 0.269,-0.058 0.289,-0.051 0.29,-0.031 0.312,-0.028 0.309,-0.023 0.32,-0.008 0.328,0 0.34,0.008 0.351,0.031 0.36,0.031 0.371,0.051 c 7.809,3.278 5.148,10.199 5.148,10.199 l -4.961,17.5 c 0,0 -1.207,7.579 -9.179,6.008 -7.418,-2.379 -5.227,-9.636 -5.227,-9.636 l 5.039,-17.821"
         style="fill:#000000;fill-opacity:1;fill-rule:nonzero;stroke:none"
         id="path30" /><path
         d="m 496.949,550.531 0,-0.019 0.008,-0.024 0,-0.039 0.012,-0.051 0.008,-0.046 0.023,-0.063 0.008,-0.07 0.019,-0.078 0.032,-0.09 0.05,-0.192 0.071,-0.218 0.078,-0.25 0.101,-0.262 0.11,-0.277 0.129,-0.301 0.152,-0.301 0.168,-0.32 0.191,-0.321 0.207,-0.32 0.231,-0.32 0.25,-0.321 0.281,-0.308 0.309,-0.301 0.332,-0.289 0.179,-0.141 0.18,-0.14 0.192,-0.129 0.199,-0.129 0.199,-0.121 0.211,-0.11 0.219,-0.109 0.23,-0.101 0.238,-0.102 0.243,-0.086 0.25,-0.082 0.257,-0.082 0.274,-0.059 0.269,-0.058 0.289,-0.051 0.29,-0.031 0.312,-0.028 0.309,-0.023 0.32,-0.008 0.328,0 0.34,0.008 0.351,0.031 0.36,0.031 0.371,0.051 c 7.809,3.278 5.148,10.199 5.148,10.199 l -4.961,17.5 c 0,0 -1.207,7.579 -9.179,6.008 -7.418,-2.379 -5.227,-9.636 -5.227,-9.636 l 5.039,-17.821 z"
         style="fill:none;stroke:none"
         id="path32" /><path
         d="m 503.777,512.02 0,-0.051 0.012,-0.039 0,-0.102 0.008,-0.058 0.012,-0.071 0,-0.09 0.019,-0.078 0.02,-0.203 0.039,-0.226 0.051,-0.25 0.062,-0.282 0.066,-0.289 0.094,-0.312 0.11,-0.321 0.117,-0.339 0.152,-0.34 0.16,-0.348 0.188,-0.351 0.211,-0.348 0.23,-0.34 0.262,-0.352 0.289,-0.332 0.16,-0.156 0.16,-0.16 0.168,-0.16 0.18,-0.152 0.18,-0.149 0.203,-0.141 0.199,-0.14 0.211,-0.129 0.219,-0.129 0.23,-0.121 0.238,-0.121 0.25,-0.11 0.25,-0.101 0.27,-0.098 0.269,-0.082 0.293,-0.078 0.301,-0.07 0.297,-0.071 0.32,-0.05 0.332,-0.051 0.329,-0.027 0.351,-0.032 0.359,-0.011 0.372,0 c 8.207,2.152 6.527,9.332 6.527,9.332 l -2.5,18.05 c 0,0 -0.117,7.7 -8.238,7.227 -7.661,-1.328 -6.532,-8.789 -6.532,-8.789 l 2.5,-18.359"
         style="fill:#000000;fill-opacity:1;fill-rule:nonzero;stroke:none"
         id="path34" /><path
         d="m 503.777,512.02 0,-0.051 0.012,-0.039 0,-0.102 0.008,-0.058 0.012,-0.071 0,-0.09 0.019,-0.078 0.02,-0.203 0.039,-0.226 0.051,-0.25 0.062,-0.282 0.066,-0.289 0.094,-0.312 0.11,-0.321 0.117,-0.339 0.152,-0.34 0.16,-0.348 0.188,-0.351 0.211,-0.348 0.23,-0.34 0.262,-0.352 0.289,-0.332 0.16,-0.156 0.16,-0.16 0.168,-0.16 0.18,-0.152 0.18,-0.149 0.203,-0.141 0.199,-0.14 0.211,-0.129 0.219,-0.129 0.23,-0.121 0.238,-0.121 0.25,-0.11 0.25,-0.101 0.27,-0.098 0.269,-0.082 0.293,-0.078 0.301,-0.07 0.297,-0.071 0.32,-0.05 0.332,-0.051 0.329,-0.027 0.351,-0.032 0.359,-0.011 0.372,0 c 8.207,2.152 6.527,9.332 6.527,9.332 l -2.5,18.05 c 0,0 -0.117,7.7 -8.238,7.227 -7.661,-1.328 -6.532,-8.789 -6.532,-8.789 l 2.5,-18.359 z"
         style="fill:none;stroke:none"
         id="path36" /><path
         d="m 506.008,472.961 0,-0.051 -0.008,-0.039 0,-0.609 0.02,-0.231 0.019,-0.25 0.027,-0.281 0.043,-0.301 0.059,-0.32 0.07,-0.328 0.078,-0.34 0.114,-0.359 0.117,-0.36 0.152,-0.363 0.168,-0.367 0.199,-0.371 0.223,-0.371 0.258,-0.36 0.133,-0.168 0.148,-0.183 0.149,-0.168 0.16,-0.172 0.172,-0.168 0.179,-0.16 0.192,-0.161 0.199,-0.148 0.199,-0.152 0.219,-0.141 0.223,-0.141 0.238,-0.136 0.242,-0.121 0.258,-0.129 0.262,-0.114 0.277,-0.109 0.293,-0.098 0.297,-0.089 0.312,-0.09 0.321,-0.082 0.339,-0.059 0.34,-0.062 0.36,-0.059 0.371,-0.039 c 8.359,1.289 7.457,8.641 7.457,8.641 l -0.617,18.16 c 0,0 0.699,7.699 -7.422,8.047 -7.782,-0.508 -7.43,-8.047 -7.43,-8.047 l 0.59,-18.551"
         style="fill:#000000;fill-opacity:1;fill-rule:nonzero;stroke:none"
         id="path38" /><path
         d="m 506.008,472.961 0,-0.051 -0.008,-0.039 0,-0.609 0.02,-0.231 0.019,-0.25 0.027,-0.281 0.043,-0.301 0.059,-0.32 0.07,-0.328 0.078,-0.34 0.114,-0.359 0.117,-0.36 0.152,-0.363 0.168,-0.367 0.199,-0.371 0.223,-0.371 0.258,-0.36 0.133,-0.168 0.148,-0.183 0.149,-0.168 0.16,-0.172 0.172,-0.168 0.179,-0.16 0.192,-0.161 0.199,-0.148 0.199,-0.152 0.219,-0.141 0.223,-0.141 0.238,-0.136 0.242,-0.121 0.258,-0.129 0.262,-0.114 0.277,-0.109 0.293,-0.098 0.297,-0.089 0.312,-0.09 0.321,-0.082 0.339,-0.059 0.34,-0.062 0.36,-0.059 0.371,-0.039 c 8.359,1.289 7.457,8.641 7.457,8.641 l -0.617,18.16 c 0,0 0.699,7.699 -7.422,8.047 -7.782,-0.508 -7.43,-8.047 -7.43,-8.047 l 0.59,-18.551 z"
         style="fill:none;stroke:none"
         id="path40" /><path
         d="m 503.938,433.781 0,-0.031 -0.008,-0.02 0,-0.039 -0.012,-0.039 -0.008,-0.062 -0.012,-0.059 -0.011,-0.07 0,-0.09 -0.008,-0.082 -0.02,-0.207 -0.011,-0.23 -0.008,-0.25 0,-0.282 0.008,-0.308 0.031,-0.321 0.031,-0.332 0.047,-0.359 0.07,-0.359 0.09,-0.371 0.11,-0.391 0.132,-0.379 0.161,-0.391 0.179,-0.39 0.211,-0.379 0.117,-0.192 0.133,-0.187 0.129,-0.191 0.149,-0.188 0.152,-0.184 0.16,-0.179 0.168,-0.18 0.18,-0.168 0.191,-0.172 0.199,-0.168 0.211,-0.16 0.219,-0.152 0.23,-0.16 0.239,-0.137 0.25,-0.152 0.261,-0.129 0.282,-0.129 0.289,-0.133 0.301,-0.109 0.308,-0.11 0.332,-0.109 0.34,-0.09 0.348,-0.09 0.359,-0.082 c 8.441,0.391 8.32,7.774 8.32,7.774 l 1.289,18.167 c 0,0 1.454,7.579 -6.558,8.79 -7.77,0.312 -8.199,-7.231 -8.199,-7.231 l -1.371,-18.508"
         style="fill:#000000;fill-opacity:1;fill-rule:nonzero;stroke:none"
         id="path42" /><path
         d="m 503.938,433.781 0,-0.031 -0.008,-0.02 0,-0.039 -0.012,-0.039 -0.008,-0.062 -0.012,-0.059 -0.011,-0.07 0,-0.09 -0.008,-0.082 -0.02,-0.207 -0.011,-0.23 -0.008,-0.25 0,-0.282 0.008,-0.308 0.031,-0.321 0.031,-0.332 0.047,-0.359 0.07,-0.359 0.09,-0.371 0.11,-0.391 0.132,-0.379 0.161,-0.391 0.179,-0.39 0.211,-0.379 0.117,-0.192 0.133,-0.187 0.129,-0.191 0.149,-0.188 0.152,-0.184 0.16,-0.179 0.168,-0.18 0.18,-0.168 0.191,-0.172 0.199,-0.168 0.211,-0.16 0.219,-0.152 0.23,-0.16 0.239,-0.137 0.25,-0.152 0.261,-0.129 0.282,-0.129 0.289,-0.133 0.301,-0.109 0.308,-0.11 0.332,-0.109 0.34,-0.09 0.348,-0.09 0.359,-0.082 c 8.441,0.391 8.32,7.774 8.32,7.774 l 1.289,18.167 c 0,0 1.454,7.579 -6.558,8.79 -7.77,0.312 -8.199,-7.231 -8.199,-7.231 l -1.371,-18.508 z"
         style="fill:none;stroke:none"
         id="path44" /><path
         d="m 443.508,652.328 0,0 0.019,-0.008 0.012,-0.019 0.031,-0.031 0.039,-0.02 0.039,-0.039 0.051,-0.043 0.059,-0.047 0.062,-0.051 0.071,-0.05 0.168,-0.122 0.191,-0.128 0.207,-0.149 0.242,-0.152 0.258,-0.16 0.293,-0.161 0.297,-0.16 0.332,-0.148 0.351,-0.152 0.36,-0.149 0.379,-0.129 0.398,-0.121 0.41,-0.101 0.43,-0.079 0.441,-0.058 0.45,-0.043 0.461,-0.008 0.23,0.008 0.238,0.012 0.243,0.019 0.238,0.031 0.25,0.039 0.242,0.051 0.25,0.059 0.25,0.07 0.25,0.07 0.25,0.09 0.25,0.102 0.258,0.109 0.25,0.117 0.262,0.133 0.257,0.149 0.25,0.16 0.262,0.172 0.258,0.179 0.262,0.2 0.25,0.21 c 4.769,5.387 -0.621,10.938 -0.621,10.938 l -13.047,12.652 c 0,0 -5.543,5.348 -10.973,0.629 -4.648,-5.511 0.27,-10.941 0.27,-10.941 l 13.32,-12.93"
         style="fill:#000000;fill-opacity:1;fill-rule:nonzero;stroke:none"
         id="path46" /><path
         d="m 443.508,652.328 0,0 0.019,-0.008 0.012,-0.019 0.031,-0.031 0.039,-0.02 0.039,-0.039 0.051,-0.043 0.059,-0.047 0.062,-0.051 0.071,-0.05 0.168,-0.122 0.191,-0.128 0.207,-0.149 0.242,-0.152 0.258,-0.16 0.293,-0.161 0.297,-0.16 0.332,-0.148 0.351,-0.152 0.36,-0.149 0.379,-0.129 0.398,-0.121 0.41,-0.101 0.43,-0.079 0.441,-0.058 0.45,-0.043 0.461,-0.008 0.23,0.008 0.238,0.012 0.243,0.019 0.238,0.031 0.25,0.039 0.242,0.051 0.25,0.059 0.25,0.07 0.25,0.07 0.25,0.09 0.25,0.102 0.258,0.109 0.25,0.117 0.262,0.133 0.257,0.149 0.25,0.16 0.262,0.172 0.258,0.179 0.262,0.2 0.25,0.21 c 4.769,5.387 -0.621,10.938 -0.621,10.938 l -13.047,12.652 c 0,0 -5.543,5.348 -10.973,0.629 -4.648,-5.511 0.27,-10.941 0.27,-10.941 l 13.32,-12.93 z"
         style="fill:none;stroke:none"
         id="path48" /><path
         d="m 414.949,677.559 0.008,0 0.012,-0.008 0.031,-0.012 0.027,-0.019 0.043,-0.02 0.047,-0.02 0.051,-0.031 0.07,-0.031 0.071,-0.039 0.082,-0.039 0.187,-0.082 0.211,-0.09 0.238,-0.098 0.274,-0.09 0.277,-0.101 0.32,-0.102 0.332,-0.089 0.348,-0.09 0.371,-0.071 0.379,-0.058 0.402,-0.051 0.418,-0.039 0.422,-0.012 0.43,0.012 0.449,0.031 0.449,0.059 0.45,0.09 0.23,0.05 0.231,0.059 0.23,0.07 0.231,0.082 0.23,0.09 0.23,0.098 0.227,0.109 0.231,0.113 0.23,0.129 0.23,0.141 0.231,0.148 0.23,0.161 0.219,0.171 0.219,0.18 0.23,0.199 0.223,0.2 0.207,0.218 0.223,0.231 0.211,0.25 0.207,0.262 c 3.519,6.289 -2.891,10.578 -2.891,10.578 l -15.387,9.652 c 0,0 -6.519,4.098 -10.859,-1.641 -3.402,-6.332 2.539,-10.66 2.539,-10.66 l 15.699,-9.89"
         style="fill:#000000;fill-opacity:1;fill-rule:nonzero;stroke:none"
         id="path50" /><path
         d="m 414.949,677.559 0.008,0 0.012,-0.008 0.031,-0.012 0.027,-0.019 0.043,-0.02 0.047,-0.02 0.051,-0.031 0.07,-0.031 0.071,-0.039 0.082,-0.039 0.187,-0.082 0.211,-0.09 0.238,-0.098 0.274,-0.09 0.277,-0.101 0.32,-0.102 0.332,-0.089 0.348,-0.09 0.371,-0.071 0.379,-0.058 0.402,-0.051 0.418,-0.039 0.422,-0.012 0.43,0.012 0.449,0.031 0.449,0.059 0.45,0.09 0.23,0.05 0.231,0.059 0.23,0.07 0.231,0.082 0.23,0.09 0.23,0.098 0.227,0.109 0.231,0.113 0.23,0.129 0.23,0.141 0.231,0.148 0.23,0.161 0.219,0.171 0.219,0.18 0.23,0.199 0.223,0.2 0.207,0.218 0.223,0.231 0.211,0.25 0.207,0.262 c 3.519,6.289 -2.891,10.578 -2.891,10.578 l -15.387,9.652 c 0,0 -6.519,4.098 -10.859,-1.641 -3.402,-6.332 2.539,-10.66 2.539,-10.66 l 15.699,-9.89 z"
         style="fill:none;stroke:none"
         id="path52" /><path
         d="m 442.488,607.25 0,-0.02 -0.008,-0.019 -0.011,-0.043 -0.012,-0.039 -0.019,-0.059 -0.02,-0.062 -0.02,-0.067 -0.031,-0.082 -0.019,-0.078 -0.071,-0.191 -0.089,-0.219 -0.098,-0.242 -0.11,-0.258 -0.132,-0.281 -0.149,-0.289 -0.16,-0.313 -0.191,-0.308 -0.2,-0.321 -0.218,-0.32 -0.25,-0.328 -0.262,-0.32 -0.289,-0.321 -0.309,-0.3 -0.332,-0.301 -0.347,-0.289 -0.383,-0.27 -0.199,-0.121 -0.2,-0.129 -0.211,-0.109 -0.218,-0.113 -0.231,-0.11 -0.23,-0.098 -0.231,-0.089 -0.25,-0.082 -0.25,-0.079 -0.258,-0.07 -0.261,-0.062 -0.27,-0.047 -0.281,-0.051 -0.289,-0.031 -0.289,-0.031 -0.301,-0.008 -0.629,0 -0.32,0.019 -0.332,0.031 c -6.988,1.829 -5.629,9.45 -5.629,9.45 l 3.75,17.781 c 0,0 1.609,7.527 8.75,6.68 6.918,-1.961 5.898,-9.262 5.898,-9.262 l -3.789,-18.129"
         style="fill:#000000;fill-opacity:1;fill-rule:nonzero;stroke:none"
         id="path54" /><path
         d="m 442.488,607.25 0,-0.02 -0.008,-0.019 -0.011,-0.043 -0.012,-0.039 -0.019,-0.059 -0.02,-0.062 -0.02,-0.067 -0.031,-0.082 -0.019,-0.078 -0.071,-0.191 -0.089,-0.219 -0.098,-0.242 -0.11,-0.258 -0.132,-0.281 -0.149,-0.289 -0.16,-0.313 -0.191,-0.308 -0.2,-0.321 -0.218,-0.32 -0.25,-0.328 -0.262,-0.32 -0.289,-0.321 -0.309,-0.3 -0.332,-0.301 -0.347,-0.289 -0.383,-0.27 -0.199,-0.121 -0.2,-0.129 -0.211,-0.109 -0.218,-0.113 -0.231,-0.11 -0.23,-0.098 -0.231,-0.089 -0.25,-0.082 -0.25,-0.079 -0.258,-0.07 -0.261,-0.062 -0.27,-0.047 -0.281,-0.051 -0.289,-0.031 -0.289,-0.031 -0.301,-0.008 -0.629,0 -0.32,0.019 -0.332,0.031 c -6.988,1.829 -5.629,9.45 -5.629,9.45 l 3.75,17.781 c 0,0 1.609,7.527 8.75,6.68 6.918,-1.961 5.898,-9.262 5.898,-9.262 l -3.789,-18.129 z"
         style="fill:none;stroke:none"
         id="path56" /><path
         d="m 439.559,568.809 0,0 0.011,-0.02 0,-0.219 0.008,-0.082 0,-0.078 -0.008,-0.09 0,-0.199 -0.011,-0.23 -0.02,-0.25 -0.031,-0.282 -0.051,-0.3 -0.047,-0.321 -0.07,-0.328 -0.09,-0.34 -0.109,-0.359 -0.121,-0.363 -0.153,-0.36 -0.168,-0.367 -0.199,-0.371 -0.223,-0.371 -0.25,-0.359 -0.136,-0.172 -0.153,-0.18 -0.148,-0.168 -0.16,-0.172 -0.172,-0.168 -0.18,-0.16 -0.187,-0.16 -0.192,-0.149 -0.211,-0.152 -0.211,-0.141 -0.23,-0.136 -0.227,-0.141 -0.25,-0.121 -0.261,-0.129 -0.262,-0.109 -0.277,-0.114 -0.29,-0.097 -0.3,-0.09 -0.313,-0.09 -0.32,-0.082 -0.328,-0.07 -0.352,-0.059 -0.359,-0.051 -0.367,-0.039 c -8.364,1.289 -7.461,8.598 -7.461,8.598 l 0.629,18.203 c 0,0 -0.668,7.66 7.421,8.047 7.77,-0.508 7.418,-8.047 7.418,-8.047 l -0.589,-18.562"
         style="fill:#000000;fill-opacity:1;fill-rule:nonzero;stroke:none"
         id="path58" /><path
         d="m 439.559,568.809 0,0 0.011,-0.02 0,-0.219 0.008,-0.082 0,-0.078 -0.008,-0.09 0,-0.199 -0.011,-0.23 -0.02,-0.25 -0.031,-0.282 -0.051,-0.3 -0.047,-0.321 -0.07,-0.328 -0.09,-0.34 -0.109,-0.359 -0.121,-0.363 -0.153,-0.36 -0.168,-0.367 -0.199,-0.371 -0.223,-0.371 -0.25,-0.359 -0.136,-0.172 -0.153,-0.18 -0.148,-0.168 -0.16,-0.172 -0.172,-0.168 -0.18,-0.16 -0.187,-0.16 -0.192,-0.149 -0.211,-0.152 -0.211,-0.141 -0.23,-0.136 -0.227,-0.141 -0.25,-0.121 -0.261,-0.129 -0.262,-0.109 -0.277,-0.114 -0.29,-0.097 -0.3,-0.09 -0.313,-0.09 -0.32,-0.082 -0.328,-0.07 -0.352,-0.059 -0.359,-0.051 -0.367,-0.039 c -8.364,1.289 -7.461,8.598 -7.461,8.598 l 0.629,18.203 c 0,0 -0.668,7.66 7.421,8.047 7.77,-0.508 7.418,-8.047 7.418,-8.047 l -0.589,-18.562 z"
         style="fill:none;stroke:none"
         id="path60" /><path
         d="m 442.688,530.301 0,-0.02 0.011,-0.031 0.008,-0.031 0.012,-0.051 0.011,-0.047 0.008,-0.07 0.012,-0.071 0.008,-0.082 0.019,-0.089 0.02,-0.2 0.031,-0.23 0.02,-0.25 0.011,-0.277 0.008,-0.313 -0.008,-0.32 -0.011,-0.34 -0.039,-0.348 -0.039,-0.371 -0.071,-0.379 -0.09,-0.39 -0.109,-0.391 -0.141,-0.398 -0.16,-0.391 -0.191,-0.402 -0.11,-0.2 -0.109,-0.187 -0.129,-0.203 -0.133,-0.188 -0.136,-0.191 -0.153,-0.192 -0.16,-0.187 -0.168,-0.18 -0.18,-0.179 -0.191,-0.18 -0.199,-0.172 -0.211,-0.172 -0.219,-0.168 -0.23,-0.16 -0.25,-0.148 -0.262,-0.153 -0.258,-0.148 -0.281,-0.141 -0.301,-0.129 -0.301,-0.133 -0.32,-0.117 -0.328,-0.113 -0.352,-0.109 -0.359,-0.098 c -8.469,-0.043 -8.711,7.348 -8.711,7.348 l -2.258,18.039 c 0,0 -1.879,7.5 6.09,9.14 7.731,0.711 8.59,-6.789 8.59,-6.789 l 2.309,-18.398"
         style="fill:#000000;fill-opacity:1;fill-rule:nonzero;stroke:none"
         id="path62" /><path
         d="m 442.688,530.301 0,-0.02 0.011,-0.031 0.008,-0.031 0.012,-0.051 0.011,-0.047 0.008,-0.07 0.012,-0.071 0.008,-0.082 0.019,-0.089 0.02,-0.2 0.031,-0.23 0.02,-0.25 0.011,-0.277 0.008,-0.313 -0.008,-0.32 -0.011,-0.34 -0.039,-0.348 -0.039,-0.371 -0.071,-0.379 -0.09,-0.39 -0.109,-0.391 -0.141,-0.398 -0.16,-0.391 -0.191,-0.402 -0.11,-0.2 -0.109,-0.187 -0.129,-0.203 -0.133,-0.188 -0.136,-0.191 -0.153,-0.192 -0.16,-0.187 -0.168,-0.18 -0.18,-0.179 -0.191,-0.18 -0.199,-0.172 -0.211,-0.172 -0.219,-0.168 -0.23,-0.16 -0.25,-0.148 -0.262,-0.153 -0.258,-0.148 -0.281,-0.141 -0.301,-0.129 -0.301,-0.133 -0.32,-0.117 -0.328,-0.113 -0.352,-0.109 -0.359,-0.098 c -8.469,-0.043 -8.711,7.348 -8.711,7.348 l -2.258,18.039 c 0,0 -1.879,7.5 6.09,9.14 7.731,0.711 8.59,-6.789 8.59,-6.789 l 2.309,-18.398 z"
         style="fill:none;stroke:none"
         id="path64" /><path
         d="m 451.438,492.141 0,-0.012 0.011,-0.02 0.008,-0.019 0.012,-0.031 0.011,-0.047 0.02,-0.051 0.02,-0.063 0.019,-0.07 0.031,-0.078 0.02,-0.082 0.058,-0.199 0.051,-0.219 0.059,-0.25 0.051,-0.281 0.039,-0.289 0.039,-0.321 0.031,-0.339 0.02,-0.348 0,-0.371 -0.008,-0.391 -0.043,-0.39 -0.047,-0.411 -0.082,-0.41 -0.11,-0.41 -0.14,-0.418 -0.078,-0.211 -0.082,-0.211 -0.098,-0.211 -0.113,-0.207 -0.11,-0.211 -0.117,-0.211 -0.14,-0.199 -0.141,-0.211 -0.149,-0.199 -0.171,-0.211 -0.172,-0.199 -0.188,-0.192 -0.191,-0.199 -0.211,-0.187 -0.219,-0.192 -0.238,-0.179 -0.242,-0.18 -0.258,-0.18 -0.27,-0.179 -0.293,-0.161 -0.297,-0.171 -0.312,-0.161 -0.328,-0.148 -0.34,-0.152 c -8.359,-1.18 -9.652,6.089 -9.652,6.089 l -4.719,17.543 c 0,0 -2.891,7.149 4.762,9.918 7.578,1.762 9.449,-5.578 9.449,-5.578 l 4.848,-17.89"
         style="fill:#000000;fill-opacity:1;fill-rule:nonzero;stroke:none"
         id="path66" /><path
         d="m 451.438,492.141 0,-0.012 0.011,-0.02 0.008,-0.019 0.012,-0.031 0.011,-0.047 0.02,-0.051 0.02,-0.063 0.019,-0.07 0.031,-0.078 0.02,-0.082 0.058,-0.199 0.051,-0.219 0.059,-0.25 0.051,-0.281 0.039,-0.289 0.039,-0.321 0.031,-0.339 0.02,-0.348 0,-0.371 -0.008,-0.391 -0.043,-0.39 -0.047,-0.411 -0.082,-0.41 -0.11,-0.41 -0.14,-0.418 -0.078,-0.211 -0.082,-0.211 -0.098,-0.211 -0.113,-0.207 -0.11,-0.211 -0.117,-0.211 -0.14,-0.199 -0.141,-0.211 -0.149,-0.199 -0.171,-0.211 -0.172,-0.199 -0.188,-0.192 -0.191,-0.199 -0.211,-0.187 -0.219,-0.192 -0.238,-0.179 -0.242,-0.18 -0.258,-0.18 -0.27,-0.179 -0.293,-0.161 -0.297,-0.171 -0.312,-0.161 -0.328,-0.148 -0.34,-0.152 c -8.359,-1.18 -9.652,6.089 -9.652,6.089 l -4.719,17.543 c 0,0 -2.891,7.149 4.762,9.918 7.578,1.762 9.449,-5.578 9.449,-5.578 l 4.848,-17.89 z"
         style="fill:none;stroke:none"
         id="path68" /><path
         d="m 464.637,455.34 0,-0.008 0.011,-0.012 0.012,-0.019 0.02,-0.039 0.019,-0.043 0.02,-0.047 0.031,-0.063 0.027,-0.058 0.032,-0.082 0.039,-0.078 0.07,-0.192 0.082,-0.219 0.078,-0.242 0.082,-0.269 0.078,-0.289 0.071,-0.309 0.07,-0.34 0.051,-0.351 0.05,-0.371 0.02,-0.379 0.008,-0.399 -0.008,-0.402 -0.043,-0.418 -0.059,-0.422 -0.089,-0.437 -0.059,-0.211 -0.062,-0.219 -0.079,-0.223 -0.082,-0.219 -0.089,-0.218 -0.098,-0.223 -0.11,-0.219 -0.121,-0.218 -0.129,-0.211 -0.14,-0.219 -0.16,-0.223 -0.16,-0.207 -0.18,-0.222 -0.18,-0.211 -0.203,-0.207 -0.219,-0.211 -0.218,-0.2 -0.243,-0.211 -0.25,-0.199 -0.269,-0.191 -0.278,-0.199 -0.3,-0.192 -0.313,-0.187 -0.32,-0.18 c -8.199,-2.07 -10.238,5.039 -10.238,5.039 l -6.52,16.988 c 0,0 -3.629,6.801 3.668,10.313 7.391,2.539 10,-4.531 10,-4.531 l 6.68,-17.301"
         style="fill:#000000;fill-opacity:1;fill-rule:nonzero;stroke:none"
         id="path70" /><path
         d="m 464.637,455.34 0,-0.008 0.011,-0.012 0.012,-0.019 0.02,-0.039 0.019,-0.043 0.02,-0.047 0.031,-0.063 0.027,-0.058 0.032,-0.082 0.039,-0.078 0.07,-0.192 0.082,-0.219 0.078,-0.242 0.082,-0.269 0.078,-0.289 0.071,-0.309 0.07,-0.34 0.051,-0.351 0.05,-0.371 0.02,-0.379 0.008,-0.399 -0.008,-0.402 -0.043,-0.418 -0.059,-0.422 -0.089,-0.437 -0.059,-0.211 -0.062,-0.219 -0.079,-0.223 -0.082,-0.219 -0.089,-0.218 -0.098,-0.223 -0.11,-0.219 -0.121,-0.218 -0.129,-0.211 -0.14,-0.219 -0.16,-0.223 -0.16,-0.207 -0.18,-0.222 -0.18,-0.211 -0.203,-0.207 -0.219,-0.211 -0.218,-0.2 -0.243,-0.211 -0.25,-0.199 -0.269,-0.191 -0.278,-0.199 -0.3,-0.192 -0.313,-0.187 -0.32,-0.18 c -8.199,-2.07 -10.238,5.039 -10.238,5.039 l -6.52,16.988 c 0,0 -3.629,6.801 3.668,10.313 7.391,2.539 10,-4.531 10,-4.531 l 6.68,-17.301 z"
         style="fill:none;stroke:none"
         id="path72" /><path
         d="m 481.867,420.102 0,0 0.012,-0.012 0.008,-0.031 0.023,-0.028 0.028,-0.039 0.031,-0.043 0.031,-0.058 0.027,-0.059 0.043,-0.07 0.047,-0.082 0.09,-0.18 0.102,-0.211 0.109,-0.23 0.109,-0.258 0.102,-0.289 0.109,-0.301 0.102,-0.332 0.09,-0.34 0.078,-0.359 0.07,-0.379 0.051,-0.399 0.031,-0.402 0.008,-0.418 -0.02,-0.434 -0.05,-0.437 -0.028,-0.231 -0.043,-0.218 -0.05,-0.231 -0.059,-0.218 -0.07,-0.231 -0.071,-0.23 -0.089,-0.231 -0.098,-0.23 -0.102,-0.239 -0.121,-0.23 -0.129,-0.231 -0.14,-0.23 -0.149,-0.231 -0.16,-0.238 -0.18,-0.23 -0.191,-0.231 -0.199,-0.222 -0.219,-0.227 -0.23,-0.23 -0.243,-0.219 -0.257,-0.231 -0.27,-0.222 -0.293,-0.219 -0.297,-0.219 c -7.972,-2.89 -10.711,3.949 -10.711,3.949 l -8.281,16.211 c 0,0 -4.328,6.368 2.582,10.657 7.07,3.293 10.387,-3.469 10.387,-3.469 l 8.48,-16.488"
         style="fill:#000000;fill-opacity:1;fill-rule:nonzero;stroke:none"
         id="path74" /><path
         d="m 481.867,420.102 0,0 0.012,-0.012 0.008,-0.031 0.023,-0.028 0.028,-0.039 0.031,-0.043 0.031,-0.058 0.027,-0.059 0.043,-0.07 0.047,-0.082 0.09,-0.18 0.102,-0.211 0.109,-0.23 0.109,-0.258 0.102,-0.289 0.109,-0.301 0.102,-0.332 0.09,-0.34 0.078,-0.359 0.07,-0.379 0.051,-0.399 0.031,-0.402 0.008,-0.418 -0.02,-0.434 -0.05,-0.437 -0.028,-0.231 -0.043,-0.218 -0.05,-0.231 -0.059,-0.218 -0.07,-0.231 -0.071,-0.23 -0.089,-0.231 -0.098,-0.23 -0.102,-0.239 -0.121,-0.23 -0.129,-0.231 -0.14,-0.23 -0.149,-0.231 -0.16,-0.238 -0.18,-0.23 -0.191,-0.231 -0.199,-0.222 -0.219,-0.227 -0.23,-0.23 -0.243,-0.219 -0.257,-0.231 -0.27,-0.222 -0.293,-0.219 -0.297,-0.219 c -7.972,-2.89 -10.711,3.949 -10.711,3.949 l -8.281,16.211 c 0,0 -4.328,6.368 2.582,10.657 7.07,3.293 10.387,-3.469 10.387,-3.469 l 8.48,-16.488 z"
         style="fill:none;stroke:none"
         id="path76" /><path
         d="m 452.098,644.871 0,-0.012 -0.008,-0.011 -0.012,-0.02 -0.008,-0.039 -0.031,-0.039 -0.019,-0.051 -0.032,-0.051 -0.039,-0.07 -0.039,-0.07 -0.043,-0.078 -0.097,-0.172 -0.129,-0.199 -0.141,-0.211 -0.16,-0.239 -0.18,-0.238 -0.203,-0.262 -0.219,-0.269 -0.238,-0.27 -0.262,-0.269 -0.281,-0.281 -0.297,-0.27 -0.32,-0.262 -0.34,-0.25 -0.359,-0.25 -0.383,-0.23 -0.399,-0.207 -0.421,-0.192 -0.219,-0.082 -0.219,-0.078 -0.23,-0.078 -0.243,-0.062 -0.238,-0.059 -0.242,-0.051 -0.25,-0.051 -0.258,-0.027 -0.262,-0.031 -0.257,-0.02 -0.27,-0.011 -0.281,0.011 -0.281,0.008 -0.29,0.02 -0.289,0.031 -0.3,0.051 -0.301,0.05 -0.309,0.071 -0.32,0.078 -0.32,0.09 c -6.481,3.09 -3.711,10.308 -3.711,10.308 l 7.07,16.762 c 0,0 3.012,7.109 9.852,4.852 6.437,-3.25 4.019,-10.161 4.019,-10.161 l -7.191,-17.109"
         style="fill:#000000;fill-opacity:1;fill-rule:nonzero;stroke:none"
         id="path78" /><path
         d="m 452.098,644.871 0,-0.012 -0.008,-0.011 -0.012,-0.02 -0.008,-0.039 -0.031,-0.039 -0.019,-0.051 -0.032,-0.051 -0.039,-0.07 -0.039,-0.07 -0.043,-0.078 -0.097,-0.172 -0.129,-0.199 -0.141,-0.211 -0.16,-0.239 -0.18,-0.238 -0.203,-0.262 -0.219,-0.269 -0.238,-0.27 -0.262,-0.269 -0.281,-0.281 -0.297,-0.27 -0.32,-0.262 -0.34,-0.25 -0.359,-0.25 -0.383,-0.23 -0.399,-0.207 -0.421,-0.192 -0.219,-0.082 -0.219,-0.078 -0.23,-0.078 -0.243,-0.062 -0.238,-0.059 -0.242,-0.051 -0.25,-0.051 -0.258,-0.027 -0.262,-0.031 -0.257,-0.02 -0.27,-0.011 -0.281,0.011 -0.281,0.008 -0.29,0.02 -0.289,0.031 -0.3,0.051 -0.301,0.05 -0.309,0.071 -0.32,0.078 -0.32,0.09 c -6.481,3.09 -3.711,10.308 -3.711,10.308 l 7.07,16.762 c 0,0 3.012,7.109 9.852,4.852 6.437,-3.25 4.019,-10.161 4.019,-10.161 l -7.191,-17.109 z"
         style="fill:none;stroke:none"
         id="path80" /><path
         d="m 468.547,679.277 -0.008,0 -0.012,-0.007 -0.007,-0.02 -0.02,-0.031 -0.031,-0.039 -0.039,-0.039 -0.043,-0.051 -0.047,-0.063 -0.051,-0.058 -0.059,-0.059 -0.14,-0.152 -0.16,-0.168 -0.192,-0.18 -0.211,-0.191 -0.218,-0.211 -0.262,-0.207 -0.27,-0.211 -0.289,-0.223 -0.308,-0.207 -0.332,-0.211 -0.348,-0.199 -0.371,-0.191 -0.391,-0.18 -0.398,-0.16 -0.422,-0.149 -0.438,-0.121 -0.46,-0.101 -0.231,-0.039 -0.23,-0.032 -0.239,-0.019 -0.25,-0.02 -0.25,-0.008 -0.25,0 -0.25,0.008 -0.261,0.02 -0.262,0.031 -0.258,0.031 -0.269,0.047 -0.27,0.063 -0.281,0.07 -0.27,0.078 -0.281,0.09 -0.281,0.109 -0.289,0.114 -0.289,0.129 -0.289,0.148 -0.29,0.152 c -5.71,4.379 -1.492,10.86 -1.492,10.86 l 10.43,14.918 c 0,0 4.379,6.332 10.629,2.703 5.621,-4.492 1.832,-10.781 1.832,-10.781 l -10.582,-15.243"
         style="fill:#000000;fill-opacity:1;fill-rule:nonzero;stroke:none"
         id="path82" /><path
         d="m 468.547,679.277 -0.008,0 -0.012,-0.007 -0.007,-0.02 -0.02,-0.031 -0.031,-0.039 -0.039,-0.039 -0.043,-0.051 -0.047,-0.063 -0.051,-0.058 -0.059,-0.059 -0.14,-0.152 -0.16,-0.168 -0.192,-0.18 -0.211,-0.191 -0.218,-0.211 -0.262,-0.207 -0.27,-0.211 -0.289,-0.223 -0.308,-0.207 -0.332,-0.211 -0.348,-0.199 -0.371,-0.191 -0.391,-0.18 -0.398,-0.16 -0.422,-0.149 -0.438,-0.121 -0.46,-0.101 -0.231,-0.039 -0.23,-0.032 -0.239,-0.019 -0.25,-0.02 -0.25,-0.008 -0.25,0 -0.25,0.008 -0.261,0.02 -0.262,0.031 -0.258,0.031 -0.269,0.047 -0.27,0.063 -0.281,0.07 -0.27,0.078 -0.281,0.09 -0.281,0.109 -0.289,0.114 -0.289,0.129 -0.289,0.148 -0.29,0.152 c -5.71,4.379 -1.492,10.86 -1.492,10.86 l 10.43,14.918 c 0,0 4.379,6.332 10.629,2.703 5.621,-4.492 1.832,-10.781 1.832,-10.781 l -10.582,-15.243 z"
         style="fill:none;stroke:none"
         id="path84" /><path
         d="m 459.566,351.391 60.719,0 0,44.543 -166.476,0 0,-44.543 63,0 0,-215.227 42.757,0 0,215.227"
         style="fill:#000000;fill-opacity:1;fill-rule:nonzero;stroke:none"
         id="path86" /><path
         d="m 557.449,419.91 0.008,0 0,0.012 0.012,0.027 0.019,0.02 0.008,0.043 0.024,0.039 0.019,0.051 0.027,0.058 0.051,0.141 0.063,0.16 0.066,0.191 0.063,0.219 0.07,0.238 0.059,0.25 0.058,0.282 0.063,0.3 0.039,0.309 0.031,0.332 0.019,0.348 0.008,0.359 -0.019,0.371 -0.028,0.379 -0.05,0.391 -0.082,0.402 -0.098,0.398 -0.133,0.411 -0.078,0.211 -0.09,0.199 -0.09,0.211 -0.101,0.207 -0.11,0.211 -0.121,0.199 -0.129,0.211 -0.14,0.211 -0.141,0.211 -0.156,0.199 -0.172,0.211 -0.18,0.207 -0.191,0.203 -0.199,0.199 -0.211,0.199 -0.219,0.2 -0.23,0.199 -0.25,0.203 -0.258,0.188 -0.274,0.191 c -6.406,3.25 -9.886,-2.5 -9.886,-2.5 l -7.653,-13.75 c 0,0 -3.238,-5.82 2.77,-9.762 6.492,-3.09 10,2.18 10,2.18 l 7.812,14.031"
         style="fill:#636360;fill-opacity:1;fill-rule:nonzero;stroke:none"
         id="path88" /><path
         d="m 557.449,419.91 0.008,0 0,0.012 0.012,0.027 0.019,0.02 0.008,0.043 0.024,0.039 0.019,0.051 0.027,0.058 0.051,0.141 0.063,0.16 0.066,0.191 0.063,0.219 0.07,0.238 0.059,0.25 0.058,0.282 0.063,0.3 0.039,0.309 0.031,0.332 0.019,0.348 0.008,0.359 -0.019,0.371 -0.028,0.379 -0.05,0.391 -0.082,0.402 -0.098,0.398 -0.133,0.411 -0.078,0.211 -0.09,0.199 -0.09,0.211 -0.101,0.207 -0.11,0.211 -0.121,0.199 -0.129,0.211 -0.14,0.211 -0.141,0.211 -0.156,0.199 -0.172,0.211 -0.18,0.207 -0.191,0.203 -0.199,0.199 -0.211,0.199 -0.219,0.2 -0.23,0.199 -0.25,0.203 -0.258,0.188 -0.274,0.191 c -6.406,3.25 -9.886,-2.5 -9.886,-2.5 l -7.653,-13.75 c 0,0 -3.238,-5.82 2.77,-9.762 6.492,-3.09 10,2.18 10,2.18 l 7.812,14.031 z"
         style="fill:none;stroke:none"
         id="path90" /><path
         d="m 577.258,452.922 0,0 0.012,0.008 0.007,0.031 0.02,0.027 0.019,0.043 0.032,0.047 0.031,0.063 0.027,0.058 0.032,0.082 0.039,0.078 0.082,0.18 0.089,0.223 0.098,0.238 0.102,0.262 0.101,0.289 0.09,0.32 0.09,0.328 0.09,0.352 0.07,0.371 0.07,0.387 0.047,0.402 0.032,0.41 0.011,0.43 -0.011,0.429 -0.032,0.45 -0.047,0.449 -0.089,0.453 -0.063,0.227 -0.059,0.23 -0.07,0.231 -0.082,0.23 -0.09,0.23 -0.097,0.231 -0.102,0.23 -0.117,0.231 -0.133,0.23 -0.141,0.227 -0.136,0.223 -0.16,0.23 -0.172,0.219 -0.192,0.23 -0.187,0.219 -0.211,0.219 -0.219,0.211 -0.23,0.218 -0.25,0.211 -0.25,0.2 c -6.25,3.562 -10.59,-2.887 -10.59,-2.887 l -9.653,-15.391 c 0,0 -4.097,-6.519 1.68,-10.859 6.332,-3.391 10.633,2.539 10.633,2.539 l 9.879,15.711"
         style="fill:#636360;fill-opacity:1;fill-rule:nonzero;stroke:none"
         id="path92" /><path
         d="m 577.258,452.922 0,0 0.012,0.008 0.007,0.031 0.02,0.027 0.019,0.043 0.032,0.047 0.031,0.063 0.027,0.058 0.032,0.082 0.039,0.078 0.082,0.18 0.089,0.223 0.098,0.238 0.102,0.262 0.101,0.289 0.09,0.32 0.09,0.328 0.09,0.352 0.07,0.371 0.07,0.387 0.047,0.402 0.032,0.41 0.011,0.43 -0.011,0.429 -0.032,0.45 -0.047,0.449 -0.089,0.453 -0.063,0.227 -0.059,0.23 -0.07,0.231 -0.082,0.23 -0.09,0.23 -0.097,0.231 -0.102,0.23 -0.117,0.231 -0.133,0.23 -0.141,0.227 -0.136,0.223 -0.16,0.23 -0.172,0.219 -0.192,0.23 -0.187,0.219 -0.211,0.219 -0.219,0.211 -0.23,0.218 -0.25,0.211 -0.25,0.2 c -6.25,3.562 -10.59,-2.887 -10.59,-2.887 l -9.653,-15.391 c 0,0 -4.097,-6.519 1.68,-10.859 6.332,-3.391 10.633,2.539 10.633,2.539 l 9.879,15.711 z"
         style="fill:none;stroke:none"
         id="path94" /><path
         d="m 601.438,483.5 0,0.012 0.011,0.008 0.02,0.019 0.019,0.031 0.032,0.039 0.027,0.039 0.039,0.063 0.043,0.059 0.047,0.07 0.051,0.07 0.109,0.18 0.121,0.199 0.141,0.231 0.14,0.25 0.141,0.281 0.141,0.301 0.136,0.32 0.141,0.348 0.129,0.359 0.121,0.383 0.109,0.386 0.09,0.422 0.082,0.422 0.051,0.438 0.027,0.449 0.012,0.473 -0.031,0.468 -0.02,0.239 -0.031,0.242 -0.039,0.238 -0.051,0.25 -0.058,0.242 -0.059,0.25 -0.082,0.25 -0.09,0.25 -0.09,0.25 -0.109,0.25 -0.121,0.25 -0.129,0.25 -0.141,0.25 -0.16,0.25 -0.168,0.258 -0.18,0.25 -0.191,0.25 -0.211,0.25 -0.219,0.25 -0.23,0.25 c -5.86,4.422 -11.172,-1.437 -11.172,-1.437 L 577.77,479.211 c 0,0 -5.082,-5.981 0.148,-11.18 5.98,-4.332 11.211,1.059 11.211,1.059 l 12.309,14.41"
         style="fill:#636360;fill-opacity:1;fill-rule:nonzero;stroke:none"
         id="path96" /><path
         d="m 601.438,483.5 0,0.012 0.011,0.008 0.02,0.019 0.019,0.031 0.032,0.039 0.027,0.039 0.039,0.063 0.043,0.059 0.047,0.07 0.051,0.07 0.109,0.18 0.121,0.199 0.141,0.231 0.14,0.25 0.141,0.281 0.141,0.301 0.136,0.32 0.141,0.348 0.129,0.359 0.121,0.383 0.109,0.386 0.09,0.422 0.082,0.422 0.051,0.438 0.027,0.449 0.012,0.473 -0.031,0.468 -0.02,0.239 -0.031,0.242 -0.039,0.238 -0.051,0.25 -0.058,0.242 -0.059,0.25 -0.082,0.25 -0.09,0.25 -0.09,0.25 -0.109,0.25 -0.121,0.25 -0.129,0.25 -0.141,0.25 -0.16,0.25 -0.168,0.258 -0.18,0.25 -0.191,0.25 -0.211,0.25 -0.219,0.25 -0.23,0.25 c -5.86,4.422 -11.172,-1.437 -11.172,-1.437 L 577.77,479.211 c 0,0 -5.082,-5.981 0.148,-11.18 5.98,-4.332 11.211,1.059 11.211,1.059 l 12.309,14.41 z"
         style="fill:none;stroke:none"
         id="path98" /><path
         d="m 630.809,506.672 0.007,0 0.012,0.008 0.02,0.011 0.031,0.028 0.039,0.023 0.039,0.039 0.051,0.039 0.058,0.039 0.063,0.051 0.07,0.059 0.16,0.133 0.168,0.16 0.192,0.179 0.199,0.2 0.219,0.218 0.222,0.243 0.219,0.257 0.231,0.289 0.218,0.301 0.231,0.321 0.211,0.351 0.207,0.359 0.191,0.379 0.18,0.391 0.16,0.418 0.129,0.434 0.121,0.449 0.051,0.23 0.039,0.231 0.031,0.238 0.02,0.238 0.019,0.25 0.012,0.25 0,0.25 -0.012,0.262 -0.019,0.262 -0.032,0.269 -0.039,0.27 -0.05,0.269 -0.059,0.282 -0.07,0.269 -0.082,0.289 -0.098,0.281 -0.102,0.289 -0.117,0.29 -0.14,0.3 -0.141,0.301 c -4.18,5.859 -10.82,1.867 -10.82,1.867 l -15.282,-9.879 c 0,0 -6.437,-4.179 -3.046,-10.55 4.296,-5.778 10.707,-2.18 10.707,-2.18 l 15.582,10.043"
         style="fill:#636360;fill-opacity:1;fill-rule:nonzero;stroke:none"
         id="path100" /><path
         d="m 630.809,506.672 0.007,0 0.012,0.008 0.02,0.011 0.031,0.028 0.039,0.023 0.039,0.039 0.051,0.039 0.058,0.039 0.063,0.051 0.07,0.059 0.16,0.133 0.168,0.16 0.192,0.179 0.199,0.2 0.219,0.218 0.222,0.243 0.219,0.257 0.231,0.289 0.218,0.301 0.231,0.321 0.211,0.351 0.207,0.359 0.191,0.379 0.18,0.391 0.16,0.418 0.129,0.434 0.121,0.449 0.051,0.23 0.039,0.231 0.031,0.238 0.02,0.238 0.019,0.25 0.012,0.25 0,0.25 -0.012,0.262 -0.019,0.262 -0.032,0.269 -0.039,0.27 -0.05,0.269 -0.059,0.282 -0.07,0.269 -0.082,0.289 -0.098,0.281 -0.102,0.289 -0.117,0.29 -0.14,0.3 -0.141,0.301 c -4.18,5.859 -10.82,1.867 -10.82,1.867 l -15.282,-9.879 c 0,0 -6.437,-4.179 -3.046,-10.55 4.296,-5.778 10.707,-2.18 10.707,-2.18 l 15.582,10.043 z"
         style="fill:none;stroke:none"
         id="path102" /><path
         d="m 665.887,521.309 0.011,0.011 0.008,0 0.032,0.008 0.031,0.024 0.039,0.019 0.051,0.02 0.058,0.019 0.071,0.031 0.07,0.039 0.078,0.04 0.191,0.089 0.2,0.11 0.23,0.133 0.242,0.136 0.258,0.16 0.281,0.192 0.278,0.199 0.293,0.223 0.289,0.238 0.289,0.262 0.289,0.277 0.293,0.301 0.277,0.332 0.27,0.34 0.25,0.359 0.242,0.391 0.219,0.41 0.101,0.207 0.098,0.223 0.09,0.23 0.082,0.227 0.078,0.23 0.062,0.242 0.071,0.25 0.046,0.25 0.043,0.258 0.04,0.27 0.031,0.269 0.008,0.274 0.011,0.289 0,0.289 -0.011,0.289 -0.032,0.301 -0.027,0.308 -0.051,0.313 -0.058,0.32 -0.071,0.328 c -2.609,6.68 -10.039,4.422 -10.039,4.422 l -17.183,-5.902 c 0,0 -7.309,-2.5 -5.547,-9.5 2.769,-6.637 9.879,-4.719 9.879,-4.719 l 17.539,5.969"
         style="fill:#636360;fill-opacity:1;fill-rule:nonzero;stroke:none"
         id="path104" /><path
         d="m 665.887,521.309 0.011,0.011 0.008,0 0.032,0.008 0.031,0.024 0.039,0.019 0.051,0.02 0.058,0.019 0.071,0.031 0.07,0.039 0.078,0.04 0.191,0.089 0.2,0.11 0.23,0.133 0.242,0.136 0.258,0.16 0.281,0.192 0.278,0.199 0.293,0.223 0.289,0.238 0.289,0.262 0.289,0.277 0.293,0.301 0.277,0.332 0.27,0.34 0.25,0.359 0.242,0.391 0.219,0.41 0.101,0.207 0.098,0.223 0.09,0.23 0.082,0.227 0.078,0.23 0.062,0.242 0.071,0.25 0.046,0.25 0.043,0.258 0.04,0.27 0.031,0.269 0.008,0.274 0.011,0.289 0,0.289 -0.011,0.289 -0.032,0.301 -0.027,0.308 -0.051,0.313 -0.058,0.32 -0.071,0.328 c -2.609,6.68 -10.039,4.422 -10.039,4.422 l -17.183,-5.902 c 0,0 -7.309,-2.5 -5.547,-9.5 2.769,-6.637 9.879,-4.719 9.879,-4.719 l 17.539,5.969 z"
         style="fill:none;stroke:none"
         id="path106" /><path
         d="m 704.016,528.352 0.019,0 0.024,0.007 0.039,0 0.039,0.012 0.058,0.02 0.063,0.007 0.07,0.02 0.078,0.023 0.082,0.028 0.2,0.051 0.218,0.07 0.242,0.09 0.27,0.101 0.277,0.11 0.301,0.129 0.313,0.148 0.32,0.172 0.328,0.18 0.328,0.21 0.344,0.219 0.328,0.25 0.328,0.27 0.32,0.293 0.313,0.308 0.309,0.34 0.281,0.36 0.14,0.199 0.129,0.191 0.129,0.211 0.121,0.207 0.121,0.223 0.11,0.23 0.097,0.231 0.102,0.238 0.09,0.25 0.078,0.25 0.082,0.262 0.059,0.269 0.062,0.278 0.047,0.293 0.043,0.289 0.027,0.3 0.024,0.309 0.008,0.32 0,0.321 -0.008,0.339 c -1.453,7.032 -9.102,6.051 -9.102,6.051 l -18.012,-2.812 c 0,0 -7.578,-1.168 -7.066,-8.36 1.598,-7.027 8.906,-6.371 8.906,-6.371 l 18.321,2.864"
         style="fill:#636360;fill-opacity:1;fill-rule:nonzero;stroke:none"
         id="path108" /><path
         d="m 704.016,528.352 0.019,0 0.024,0.007 0.039,0 0.039,0.012 0.058,0.02 0.063,0.007 0.07,0.02 0.078,0.023 0.082,0.028 0.2,0.051 0.218,0.07 0.242,0.09 0.27,0.101 0.277,0.11 0.301,0.129 0.313,0.148 0.32,0.172 0.328,0.18 0.328,0.21 0.344,0.219 0.328,0.25 0.328,0.27 0.32,0.293 0.313,0.308 0.309,0.34 0.281,0.36 0.14,0.199 0.129,0.191 0.129,0.211 0.121,0.207 0.121,0.223 0.11,0.23 0.097,0.231 0.102,0.238 0.09,0.25 0.078,0.25 0.082,0.262 0.059,0.269 0.062,0.278 0.047,0.293 0.043,0.289 0.027,0.3 0.024,0.309 0.008,0.32 0,0.321 -0.008,0.339 c -1.453,7.032 -9.102,6.051 -9.102,6.051 l -18.012,-2.812 c 0,0 -7.578,-1.168 -7.066,-8.36 1.598,-7.027 8.906,-6.371 8.906,-6.371 l 18.321,2.864 z"
         style="fill:none;stroke:none"
         id="path110" /><path
         d="m 743.195,530.73 0.043,0 0.039,0.008 0.051,0 0.047,0.012 0.07,0.012 0.071,0.008 0.082,0.011 0.09,0.008 0.199,0.039 0.23,0.043 0.25,0.059 0.281,0.058 0.29,0.09 0.32,0.09 0.32,0.113 0.34,0.129 0.348,0.141 0.359,0.168 0.363,0.179 0.36,0.211 0.359,0.219 0.359,0.25 0.352,0.281 0.34,0.301 0.328,0.32 0.16,0.18 0.16,0.18 0.153,0.191 0.148,0.188 0.141,0.211 0.129,0.211 0.14,0.211 0.121,0.23 0.117,0.227 0.11,0.25 0.113,0.25 0.098,0.261 0.09,0.27 0.082,0.269 0.078,0.289 0.062,0.293 0.059,0.309 0.051,0.309 0.039,0.32 0.031,0.332 c -0.59,7.187 -8.32,7.148 -8.32,7.148 l -18.172,-0.578 c 0,0 -7.688,-0.281 -8.09,-7.472 0.75,-7.141 8.09,-7.379 8.09,-7.379 l 18.519,0.55"
         style="fill:#636360;fill-opacity:1;fill-rule:nonzero;stroke:none"
         id="path112" /><path
         d="m 743.195,530.73 0.043,0 0.039,0.008 0.051,0 0.047,0.012 0.07,0.012 0.071,0.008 0.082,0.011 0.09,0.008 0.199,0.039 0.23,0.043 0.25,0.059 0.281,0.058 0.29,0.09 0.32,0.09 0.32,0.113 0.34,0.129 0.348,0.141 0.359,0.168 0.363,0.179 0.36,0.211 0.359,0.219 0.359,0.25 0.352,0.281 0.34,0.301 0.328,0.32 0.16,0.18 0.16,0.18 0.153,0.191 0.148,0.188 0.141,0.211 0.129,0.211 0.14,0.211 0.121,0.23 0.117,0.227 0.11,0.25 0.113,0.25 0.098,0.261 0.09,0.27 0.082,0.269 0.078,0.289 0.062,0.293 0.059,0.309 0.051,0.309 0.039,0.32 0.031,0.332 c -0.59,7.187 -8.32,7.148 -8.32,7.148 l -18.172,-0.578 c 0,0 -7.688,-0.281 -8.09,-7.472 0.75,-7.141 8.09,-7.379 8.09,-7.379 l 18.519,0.55 z"
         style="fill:none;stroke:none"
         id="path114" /><path
         d="m 782.566,529.949 0.192,0 0.058,0.012 0.071,0 0.09,0.008 0.089,0.011 0.2,0.02 0.23,0.02 0.25,0.039 0.281,0.05 0.301,0.059 0.317,0.07 0.343,0.082 0.34,0.11 0.36,0.121 0.367,0.129 0.371,0.16 0.371,0.18 0.379,0.199 0.371,0.222 0.371,0.25 0.359,0.278 0.348,0.301 0.172,0.16 0.168,0.172 0.16,0.179 0.16,0.18 0.16,0.199 0.153,0.199 0.148,0.211 0.141,0.211 0.129,0.231 0.129,0.226 0.132,0.242 0.11,0.258 0.109,0.262 0.102,0.27 0.097,0.281 0.09,0.289 0.07,0.301 0.071,0.308 0.07,0.321 0.051,0.332 c -0.082,7.179 -7.781,7.687 -7.781,7.687 l -18.2,0.672 c 0,0 -7.691,0.269 -8.55,-6.883 0.23,-7.187 7.539,-7.93 7.539,-7.93 l 18.511,-0.699"
         style="fill:#636360;fill-opacity:1;fill-rule:nonzero;stroke:none"
         id="path116" /><path
         d="m 782.566,529.949 0.192,0 0.058,0.012 0.071,0 0.09,0.008 0.089,0.011 0.2,0.02 0.23,0.02 0.25,0.039 0.281,0.05 0.301,0.059 0.317,0.07 0.343,0.082 0.34,0.11 0.36,0.121 0.367,0.129 0.371,0.16 0.371,0.18 0.379,0.199 0.371,0.222 0.371,0.25 0.359,0.278 0.348,0.301 0.172,0.16 0.168,0.172 0.16,0.179 0.16,0.18 0.16,0.199 0.153,0.199 0.148,0.211 0.141,0.211 0.129,0.231 0.129,0.226 0.132,0.242 0.11,0.258 0.109,0.262 0.102,0.27 0.097,0.281 0.09,0.289 0.07,0.301 0.071,0.308 0.07,0.321 0.051,0.332 c -0.082,7.179 -7.781,7.687 -7.781,7.687 l -18.2,0.672 c 0,0 -7.691,0.269 -8.55,-6.883 0.23,-7.187 7.539,-7.93 7.539,-7.93 l 18.511,-0.699 z"
         style="fill:none;stroke:none"
         id="path118" /><path
         d="m 575.93,359.672 0,0 0.008,-0.012 0.019,-0.019 0.02,-0.032 0.031,-0.039 0.039,-0.039 0.039,-0.051 0.043,-0.058 0.051,-0.063 0.047,-0.078 0.121,-0.16 0.129,-0.191 0.14,-0.219 0.153,-0.238 0.148,-0.274 0.148,-0.289 0.161,-0.301 0.152,-0.328 0.141,-0.351 0.136,-0.371 0.121,-0.379 0.11,-0.399 0.101,-0.418 0.071,-0.433 0.05,-0.438 0.028,-0.453 0.011,-0.457 -0.011,-0.242 -0.02,-0.238 -0.031,-0.243 -0.027,-0.238 -0.051,-0.242 -0.051,-0.246 -0.059,-0.254 -0.07,-0.246 -0.082,-0.25 -0.098,-0.25 -0.101,-0.25 -0.109,-0.25 -0.129,-0.262 -0.129,-0.25 -0.153,-0.258 -0.168,-0.254 -0.171,-0.257 -0.192,-0.262 -0.199,-0.25 -0.211,-0.258 c -5.469,-4.652 -10.938,0.82 -10.938,0.82 l -12.421,13.278 c 0,0 -5.278,5.633 -0.43,10.98 5.551,4.531 10.941,-0.469 10.941,-0.469 l 12.692,-13.519"
         style="fill:#636360;fill-opacity:1;fill-rule:nonzero;stroke:none"
         id="path120" /><path
         d="m 575.93,359.672 0,0 0.008,-0.012 0.019,-0.019 0.02,-0.032 0.031,-0.039 0.039,-0.039 0.039,-0.051 0.043,-0.058 0.051,-0.063 0.047,-0.078 0.121,-0.16 0.129,-0.191 0.14,-0.219 0.153,-0.238 0.148,-0.274 0.148,-0.289 0.161,-0.301 0.152,-0.328 0.141,-0.351 0.136,-0.371 0.121,-0.379 0.11,-0.399 0.101,-0.418 0.071,-0.433 0.05,-0.438 0.028,-0.453 0.011,-0.457 -0.011,-0.242 -0.02,-0.238 -0.031,-0.243 -0.027,-0.238 -0.051,-0.242 -0.051,-0.246 -0.059,-0.254 -0.07,-0.246 -0.082,-0.25 -0.098,-0.25 -0.101,-0.25 -0.109,-0.25 -0.129,-0.262 -0.129,-0.25 -0.153,-0.258 -0.168,-0.254 -0.171,-0.257 -0.192,-0.262 -0.199,-0.25 -0.211,-0.258 c -5.469,-4.652 -10.938,0.82 -10.938,0.82 l -12.421,13.278 c 0,0 -5.278,5.633 -0.43,10.98 5.551,4.531 10.941,-0.469 10.941,-0.469 l 12.692,-13.519 z"
         style="fill:none;stroke:none"
         id="path122" /><path
         d="m 605.457,334.242 0.012,0 0.008,-0.012 0.019,-0.019 0.031,-0.02 0.032,-0.039 0.039,-0.031 0.05,-0.051 0.051,-0.05 0.059,-0.059 0.07,-0.07 0.141,-0.141 0.16,-0.18 0.168,-0.199 0.191,-0.219 0.188,-0.242 0.203,-0.269 0.199,-0.289 0.199,-0.309 0.2,-0.332 0.191,-0.348 0.18,-0.371 0.172,-0.383 0.156,-0.41 0.133,-0.418 0.117,-0.429 0.101,-0.461 0.059,-0.457 0.031,-0.243 0.012,-0.242 0.008,-0.246 0,-0.254 -0.008,-0.246 -0.012,-0.254 -0.031,-0.258 -0.039,-0.261 -0.051,-0.258 -0.047,-0.27 -0.07,-0.269 -0.082,-0.27 -0.09,-0.273 -0.098,-0.277 -0.121,-0.282 -0.129,-0.281 -0.14,-0.277 -0.153,-0.282 -0.168,-0.289 -0.179,-0.293 c -4.922,-5.468 -11.25,-0.738 -11.25,-0.738 l -14.531,11.602 c 0,0 -6.168,4.879 -1.989,10.976 5.039,5.391 11.207,1.09 11.207,1.09 l 14.801,-11.797"
         style="fill:#636360;fill-opacity:1;fill-rule:nonzero;stroke:none"
         id="path124" /><path
         d="m 605.457,334.242 0.012,0 0.008,-0.012 0.019,-0.019 0.031,-0.02 0.032,-0.039 0.039,-0.031 0.05,-0.051 0.051,-0.05 0.059,-0.059 0.07,-0.07 0.141,-0.141 0.16,-0.18 0.168,-0.199 0.191,-0.219 0.188,-0.242 0.203,-0.269 0.199,-0.289 0.199,-0.309 0.2,-0.332 0.191,-0.348 0.18,-0.371 0.172,-0.383 0.156,-0.41 0.133,-0.418 0.117,-0.429 0.101,-0.461 0.059,-0.457 0.031,-0.243 0.012,-0.242 0.008,-0.246 0,-0.254 -0.008,-0.246 -0.012,-0.254 -0.031,-0.258 -0.039,-0.261 -0.051,-0.258 -0.047,-0.27 -0.07,-0.269 -0.082,-0.27 -0.09,-0.273 -0.098,-0.277 -0.121,-0.282 -0.129,-0.281 -0.14,-0.277 -0.153,-0.282 -0.168,-0.289 -0.179,-0.293 c -4.922,-5.468 -11.25,-0.738 -11.25,-0.738 l -14.531,11.602 c 0,0 -6.168,4.879 -1.989,10.976 5.039,5.391 11.207,1.09 11.207,1.09 l 14.801,-11.797 z"
         style="fill:none;stroke:none"
         id="path126" /><path
         d="m 638.738,317.141 0.008,-0.008 0.012,0 0.031,-0.024 0.027,-0.007 0.043,-0.02 0.047,-0.031 0.063,-0.031 0.058,-0.028 0.071,-0.043 0.078,-0.039 0.183,-0.097 0.2,-0.122 0.207,-0.14 0.242,-0.16 0.25,-0.168 0.258,-0.203 0.273,-0.207 0.277,-0.243 0.27,-0.25 0.281,-0.277 0.281,-0.293 0.27,-0.32 0.258,-0.328 0.25,-0.36 0.23,-0.379 0.223,-0.39 0.199,-0.422 0.09,-0.219 0.078,-0.223 0.082,-0.226 0.07,-0.231 0.071,-0.242 0.058,-0.25 0.039,-0.238 0.051,-0.262 0.031,-0.258 0.02,-0.269 0.02,-0.27 0,-0.273 -0.012,-0.289 -0.008,-0.281 -0.031,-0.297 -0.039,-0.289 -0.039,-0.313 -0.071,-0.308 -0.07,-0.313 -0.082,-0.328 c -3.008,-6.563 -10.277,-3.902 -10.277,-3.902 l -16.871,6.793 c 0,0 -7.149,2.859 -5.04,9.769 3.161,6.481 10.118,4.18 10.118,4.18 l 17.222,-6.871"
         style="fill:#636360;fill-opacity:1;fill-rule:nonzero;stroke:none"
         id="path128" /><path
         d="m 638.738,317.141 0.008,-0.008 0.012,0 0.031,-0.024 0.027,-0.007 0.043,-0.02 0.047,-0.031 0.063,-0.031 0.058,-0.028 0.071,-0.043 0.078,-0.039 0.183,-0.097 0.2,-0.122 0.207,-0.14 0.242,-0.16 0.25,-0.168 0.258,-0.203 0.273,-0.207 0.277,-0.243 0.27,-0.25 0.281,-0.277 0.281,-0.293 0.27,-0.32 0.258,-0.328 0.25,-0.36 0.23,-0.379 0.223,-0.39 0.199,-0.422 0.09,-0.219 0.078,-0.223 0.082,-0.226 0.07,-0.231 0.071,-0.242 0.058,-0.25 0.039,-0.238 0.051,-0.262 0.031,-0.258 0.02,-0.269 0.02,-0.27 0,-0.273 -0.012,-0.289 -0.008,-0.281 -0.031,-0.297 -0.039,-0.289 -0.039,-0.313 -0.071,-0.308 -0.07,-0.313 -0.082,-0.328 c -3.008,-6.563 -10.277,-3.902 -10.277,-3.902 l -16.871,6.793 c 0,0 -7.149,2.859 -5.04,9.769 3.161,6.481 10.118,4.18 10.118,4.18 l 17.222,-6.871 z"
         style="fill:none;stroke:none"
         id="path130" /><path
         d="m 675.969,309.441 0.019,0 0.028,-0.007 0.031,-0.012 0.051,-0.012 0.05,-0.008 0.059,-0.011 0.082,-0.02 0.066,-0.019 0.09,-0.02 0.203,-0.059 0.219,-0.07 0.238,-0.082 0.274,-0.101 0.289,-0.11 0.301,-0.117 0.308,-0.152 0.328,-0.161 0.333,-0.179 0.328,-0.199 0.339,-0.219 0.34,-0.242 0.344,-0.27 0.316,-0.281 0.321,-0.309 0.312,-0.34 0.289,-0.359 0.141,-0.191 0.141,-0.188 0.129,-0.203 0.128,-0.211 0.122,-0.219 0.109,-0.218 0.109,-0.231 0.102,-0.238 0.09,-0.25 0.09,-0.25 0.078,-0.262 0.07,-0.269 0.062,-0.27 0.059,-0.289 0.039,-0.293 0.043,-0.297 0.02,-0.301 0.019,-0.32 0,-0.66 c -1.332,-7.07 -9.019,-6.25 -9.019,-6.25 l -18.012,2.5 c 0,0 -7.621,1.058 -7.231,8.25 1.45,7.07 8.789,6.519 8.789,6.519 l 18.364,-2.5"
         style="fill:#636360;fill-opacity:1;fill-rule:nonzero;stroke:none"
         id="path132" /><path
         d="m 675.969,309.441 0.019,0 0.028,-0.007 0.031,-0.012 0.051,-0.012 0.05,-0.008 0.059,-0.011 0.082,-0.02 0.066,-0.019 0.09,-0.02 0.203,-0.059 0.219,-0.07 0.238,-0.082 0.274,-0.101 0.289,-0.11 0.301,-0.117 0.308,-0.152 0.328,-0.161 0.333,-0.179 0.328,-0.199 0.339,-0.219 0.34,-0.242 0.344,-0.27 0.316,-0.281 0.321,-0.309 0.312,-0.34 0.289,-0.359 0.141,-0.191 0.141,-0.188 0.129,-0.203 0.128,-0.211 0.122,-0.219 0.109,-0.218 0.109,-0.231 0.102,-0.238 0.09,-0.25 0.09,-0.25 0.078,-0.262 0.07,-0.269 0.062,-0.27 0.059,-0.289 0.039,-0.293 0.043,-0.297 0.02,-0.301 0.019,-0.32 0,-0.66 c -1.332,-7.07 -9.019,-6.25 -9.019,-6.25 l -18.012,2.5 c 0,0 -7.621,1.058 -7.231,8.25 1.45,7.07 8.789,6.519 8.789,6.519 l 18.364,-2.5 z"
         style="fill:none;stroke:none"
         id="path134" /><path
         d="m 714.719,309.832 0.129,0 0.058,-0.012 0.129,0 0.082,-0.007 0.09,-0.012 0.211,-0.02 0.23,-0.019 0.25,-0.039 0.278,-0.051 0.301,-0.063 0.32,-0.066 0.328,-0.094 0.352,-0.097 0.359,-0.122 0.371,-0.14 0.371,-0.149 0.367,-0.179 0.383,-0.199 0.367,-0.231 0.371,-0.25 0.36,-0.269 0.351,-0.301 0.168,-0.16 0.172,-0.172 0.16,-0.18 0.161,-0.187 0.16,-0.192 0.148,-0.199 0.152,-0.211 0.137,-0.211 0.133,-0.23 0.129,-0.227 0.121,-0.254 0.117,-0.246 0.113,-0.262 0.098,-0.269 0.102,-0.282 0.078,-0.289 0.082,-0.3 0.07,-0.309 0.059,-0.32 0.058,-0.332 c -0.078,-7.188 -7.777,-7.727 -7.777,-7.727 l -18.199,-0.672 c 0,0 -7.703,-0.269 -8.551,6.879 0.23,7.192 7.527,7.973 7.527,7.973 l 18.524,0.699"
         style="fill:#636360;fill-opacity:1;fill-rule:nonzero;stroke:none"
         id="path136" /><path
         d="m 714.719,309.832 0.129,0 0.058,-0.012 0.129,0 0.082,-0.007 0.09,-0.012 0.211,-0.02 0.23,-0.019 0.25,-0.039 0.278,-0.051 0.301,-0.063 0.32,-0.066 0.328,-0.094 0.352,-0.097 0.359,-0.122 0.371,-0.14 0.371,-0.149 0.367,-0.179 0.383,-0.199 0.367,-0.231 0.371,-0.25 0.36,-0.269 0.351,-0.301 0.168,-0.16 0.172,-0.172 0.16,-0.18 0.161,-0.187 0.16,-0.192 0.148,-0.199 0.152,-0.211 0.137,-0.211 0.133,-0.23 0.129,-0.227 0.121,-0.254 0.117,-0.246 0.113,-0.262 0.098,-0.269 0.102,-0.282 0.078,-0.289 0.082,-0.3 0.07,-0.309 0.059,-0.32 0.058,-0.332 c -0.078,-7.188 -7.777,-7.727 -7.777,-7.727 l -18.199,-0.672 c 0,0 -7.703,-0.269 -8.551,6.879 0.23,7.192 7.527,7.973 7.527,7.973 l 18.524,0.699 z"
         style="fill:none;stroke:none"
         id="path138" /><path
         d="m 753.668,314.949 0.039,0 0.039,0.012 0.102,0 0.058,0.012 0.082,0 0.078,0.007 0.782,0 0.277,-0.007 0.301,-0.032 0.332,-0.031 0.34,-0.047 0.359,-0.062 0.359,-0.071 0.379,-0.097 0.391,-0.113 0.391,-0.129 0.398,-0.149 0.402,-0.179 0.391,-0.211 0.387,-0.231 0.383,-0.25 0.187,-0.141 0.191,-0.148 0.18,-0.16 0.192,-0.16 0.167,-0.18 0.18,-0.18 0.172,-0.191 0.16,-0.199 0.16,-0.211 0.161,-0.211 0.148,-0.227 0.152,-0.242 0.137,-0.238 0.133,-0.262 0.129,-0.269 0.121,-0.282 0.109,-0.277 0.11,-0.301 0.101,-0.312 0.09,-0.328 c 0.82,-7.141 -6.793,-8.59 -6.793,-8.59 l -17.93,-2.891 c 0,0 -7.617,-1.211 -9.34,5.781 -0.66,7.188 6.493,8.828 6.493,8.828 l 18.32,2.969"
         style="fill:#636360;fill-opacity:1;fill-rule:nonzero;stroke:none"
         id="path140" /><path
         d="m 753.668,314.949 0.039,0 0.039,0.012 0.102,0 0.058,0.012 0.082,0 0.078,0.007 0.782,0 0.277,-0.007 0.301,-0.032 0.332,-0.031 0.34,-0.047 0.359,-0.062 0.359,-0.071 0.379,-0.097 0.391,-0.113 0.391,-0.129 0.398,-0.149 0.402,-0.179 0.391,-0.211 0.387,-0.231 0.383,-0.25 0.187,-0.141 0.191,-0.148 0.18,-0.16 0.192,-0.16 0.167,-0.18 0.18,-0.18 0.172,-0.191 0.16,-0.199 0.16,-0.211 0.161,-0.211 0.148,-0.227 0.152,-0.242 0.137,-0.238 0.133,-0.262 0.129,-0.269 0.121,-0.282 0.109,-0.277 0.11,-0.301 0.101,-0.312 0.09,-0.328 c 0.82,-7.141 -6.793,-8.59 -6.793,-8.59 l -17.93,-2.891 c 0,0 -7.617,-1.211 -9.34,5.781 -0.66,7.188 6.493,8.828 6.493,8.828 l 18.32,2.969 z"
         style="fill:none;stroke:none"
         id="path142" /><path
         d="m 792.137,323.23 0.019,0 0.032,0.012 0.039,0 0.039,0.008 0.062,0.012 0.059,0.008 0.07,0.011 0.078,0.008 0.09,0.012 0.211,0.019 0.23,0.012 0.262,0.02 0.277,0.007 0.313,0 0.32,-0.007 0.348,-0.02 0.359,-0.043 0.383,-0.047 0.379,-0.062 0.398,-0.078 0.403,-0.11 0.41,-0.121 0.41,-0.148 0.399,-0.172 0.41,-0.199 0.398,-0.231 0.203,-0.129 0.2,-0.129 0.187,-0.152 0.203,-0.148 0.188,-0.153 0.179,-0.168 0.192,-0.179 0.168,-0.192 0.183,-0.191 0.168,-0.207 0.172,-0.211 0.16,-0.231 0.157,-0.23 0.152,-0.25 0.141,-0.258 0.14,-0.262 0.137,-0.281 0.133,-0.301 0.117,-0.297 0.113,-0.312 c 1.289,-7.07 -6.172,-9.059 -6.172,-9.059 l -17.738,-4.109 c 0,0 -7.5,-1.75 -9.68,5.078 -1.183,7.113 5.848,9.262 5.848,9.262 l 18.051,4.218"
         style="fill:#636360;fill-opacity:1;fill-rule:nonzero;stroke:none"
         id="path144" /><path
         d="m 792.137,323.23 0.019,0 0.032,0.012 0.039,0 0.039,0.008 0.062,0.012 0.059,0.008 0.07,0.011 0.078,0.008 0.09,0.012 0.211,0.019 0.23,0.012 0.262,0.02 0.277,0.007 0.313,0 0.32,-0.007 0.348,-0.02 0.359,-0.043 0.383,-0.047 0.379,-0.062 0.398,-0.078 0.403,-0.11 0.41,-0.121 0.41,-0.148 0.399,-0.172 0.41,-0.199 0.398,-0.231 0.203,-0.129 0.2,-0.129 0.187,-0.152 0.203,-0.148 0.188,-0.153 0.179,-0.168 0.192,-0.179 0.168,-0.192 0.183,-0.191 0.168,-0.207 0.172,-0.211 0.16,-0.231 0.157,-0.23 0.152,-0.25 0.141,-0.258 0.14,-0.262 0.137,-0.281 0.133,-0.301 0.117,-0.297 0.113,-0.312 c 1.289,-7.07 -6.172,-9.059 -6.172,-9.059 l -17.738,-4.109 c 0,0 -7.5,-1.75 -9.68,5.078 -1.183,7.113 5.848,9.262 5.848,9.262 l 18.051,4.218 z"
         style="fill:none;stroke:none"
         id="path146" /><path
         d="m 542.688,292.531 0,-0.011 0.011,-0.008 0.008,-0.032 0.02,-0.027 0.023,-0.043 0.027,-0.039 0.032,-0.058 0.039,-0.063 0.05,-0.07 0.051,-0.078 0.11,-0.161 0.129,-0.191 0.152,-0.207 0.18,-0.223 0.187,-0.238 0.211,-0.25 0.238,-0.25 0.25,-0.262 0.274,-0.257 0.297,-0.25 0.312,-0.262 0.328,-0.238 0.36,-0.243 0.371,-0.218 0.39,-0.211 0.41,-0.192 0.43,-0.168 0.231,-0.07 0.23,-0.07 0.231,-0.059 0.238,-0.051 0.238,-0.051 0.254,-0.039 0.25,-0.031 0.246,-0.019 0.274,-0.008 0.257,-0.012 0.27,0.012 0.281,0.008 0.281,0.031 0.289,0.039 0.29,0.051 0.289,0.051 0.3,0.078 0.313,0.082 0.308,0.097 0.309,0.102 c 6.332,3.441 3.172,10.469 3.172,10.469 l -7.93,16.371 c 0,0 -3.359,6.949 -10.082,4.34 -6.25,-3.559 -3.519,-10.36 -3.519,-10.36 l 8.09,-16.711"
         style="fill:#636360;fill-opacity:1;fill-rule:nonzero;stroke:none"
         id="path148" /><path
         d="m 542.688,292.531 0,-0.011 0.011,-0.008 0.008,-0.032 0.02,-0.027 0.023,-0.043 0.027,-0.039 0.032,-0.058 0.039,-0.063 0.05,-0.07 0.051,-0.078 0.11,-0.161 0.129,-0.191 0.152,-0.207 0.18,-0.223 0.187,-0.238 0.211,-0.25 0.238,-0.25 0.25,-0.262 0.274,-0.257 0.297,-0.25 0.312,-0.262 0.328,-0.238 0.36,-0.243 0.371,-0.218 0.39,-0.211 0.41,-0.192 0.43,-0.168 0.231,-0.07 0.23,-0.07 0.231,-0.059 0.238,-0.051 0.238,-0.051 0.254,-0.039 0.25,-0.031 0.246,-0.019 0.274,-0.008 0.257,-0.012 0.27,0.012 0.281,0.008 0.281,0.031 0.289,0.039 0.29,0.051 0.289,0.051 0.3,0.078 0.313,0.082 0.308,0.097 0.309,0.102 c 6.332,3.441 3.172,10.469 3.172,10.469 l -7.93,16.371 c 0,0 -3.359,6.949 -10.082,4.34 -6.25,-3.559 -3.519,-10.36 -3.519,-10.36 l 8.09,-16.711 z"
         style="fill:none;stroke:none"
         id="path150" /><path
         d="m 558.816,256.473 0,0 0.012,-0.02 0.012,-0.019 0.008,-0.043 0.011,-0.039 0.02,-0.051 0.019,-0.071 0.032,-0.058 0.027,-0.082 0.031,-0.078 0.078,-0.192 0.09,-0.207 0.114,-0.23 0.128,-0.25 0.149,-0.262 0.16,-0.281 0.191,-0.277 0.2,-0.293 0.23,-0.29 0.25,-0.296 0.27,-0.282 0.289,-0.289 0.32,-0.273 0.34,-0.258 0.359,-0.25 0.192,-0.109 0.199,-0.121 0.211,-0.102 0.211,-0.098 0.219,-0.101 0.218,-0.078 0.231,-0.082 0.242,-0.078 0.25,-0.063 0.25,-0.059 0.258,-0.05 0.269,-0.039 0.274,-0.032 0.277,-0.019 0.289,-0.02 0.301,0 0.301,0.012 0.308,0.02 0.321,0.027 0.332,0.043 0.339,0.058 0.34,0.071 0.352,0.082 0.359,0.09 c 7.348,4.179 3.867,10.707 3.867,10.707 l -7.07,16.75 c 0,0 -2.148,7.422 -9.84,4.89 -7.066,-3.289 -4.027,-10.199 -4.027,-10.199 l 7.187,-17.109"
         style="fill:#636360;fill-opacity:1;fill-rule:nonzero;stroke:none"
         id="path152" /><path
         d="m 558.816,256.473 0,0 0.012,-0.02 0.012,-0.019 0.008,-0.043 0.011,-0.039 0.02,-0.051 0.019,-0.071 0.032,-0.058 0.027,-0.082 0.031,-0.078 0.078,-0.192 0.09,-0.207 0.114,-0.23 0.128,-0.25 0.149,-0.262 0.16,-0.281 0.191,-0.277 0.2,-0.293 0.23,-0.29 0.25,-0.296 0.27,-0.282 0.289,-0.289 0.32,-0.273 0.34,-0.258 0.359,-0.25 0.192,-0.109 0.199,-0.121 0.211,-0.102 0.211,-0.098 0.219,-0.101 0.218,-0.078 0.231,-0.082 0.242,-0.078 0.25,-0.063 0.25,-0.059 0.258,-0.05 0.269,-0.039 0.274,-0.032 0.277,-0.019 0.289,-0.02 0.301,0 0.301,0.012 0.308,0.02 0.321,0.027 0.332,0.043 0.339,0.058 0.34,0.071 0.352,0.082 0.359,0.09 c 7.348,4.179 3.867,10.707 3.867,10.707 l -7.07,16.75 c 0,0 -2.148,7.422 -9.84,4.89 -7.066,-3.289 -4.027,-10.199 -4.027,-10.199 l 7.187,-17.109 z"
         style="fill:none;stroke:none"
         id="path154" /><path
         d="m 569.949,219.242 0,0 0.008,-0.019 0,-0.02 0.012,-0.039 0.008,-0.051 0.011,-0.05 0.008,-0.059 0.024,-0.07 0.019,-0.082 0.02,-0.09 0.05,-0.199 0.059,-0.223 0.078,-0.25 0.094,-0.258 0.109,-0.281 0.129,-0.301 0.141,-0.309 0.168,-0.32 0.179,-0.32 0.204,-0.328 0.226,-0.321 0.25,-0.332 0.281,-0.308 0.301,-0.309 0.328,-0.301 0.172,-0.14 0.18,-0.141 0.191,-0.129 0.199,-0.129 0.2,-0.133 0.211,-0.117 0.218,-0.109 0.231,-0.113 0.23,-0.098 0.239,-0.09 0.25,-0.082 0.261,-0.078 0.27,-0.07 0.281,-0.063 0.277,-0.058 0.301,-0.039 0.301,-0.032 0.309,-0.031 0.32,-0.008 0.672,0 0.359,0.02 0.36,0.031 0.371,0.051 c 7.847,3.16 5.308,10.078 5.308,10.078 l -4.687,17.57 c 0,0 -1.051,7.66 -9.063,6.18 -7.461,-2.231 -5.39,-9.531 -5.39,-9.531 l 4.722,-17.899"
         style="fill:#636360;fill-opacity:1;fill-rule:nonzero;stroke:none"
         id="path156" /><path
         d="m 569.949,219.242 0,0 0.008,-0.019 0,-0.02 0.012,-0.039 0.008,-0.051 0.011,-0.05 0.008,-0.059 0.024,-0.07 0.019,-0.082 0.02,-0.09 0.05,-0.199 0.059,-0.223 0.078,-0.25 0.094,-0.258 0.109,-0.281 0.129,-0.301 0.141,-0.309 0.168,-0.32 0.179,-0.32 0.204,-0.328 0.226,-0.321 0.25,-0.332 0.281,-0.308 0.301,-0.309 0.328,-0.301 0.172,-0.14 0.18,-0.141 0.191,-0.129 0.199,-0.129 0.2,-0.133 0.211,-0.117 0.218,-0.109 0.231,-0.113 0.23,-0.098 0.239,-0.09 0.25,-0.082 0.261,-0.078 0.27,-0.07 0.281,-0.063 0.277,-0.058 0.301,-0.039 0.301,-0.032 0.309,-0.031 0.32,-0.008 0.672,0 0.359,0.02 0.36,0.031 0.371,0.051 c 7.847,3.16 5.308,10.078 5.308,10.078 l -4.687,17.57 c 0,0 -1.051,7.66 -9.063,6.18 -7.461,-2.231 -5.39,-9.531 -5.39,-9.531 l 4.722,-17.899 z"
         style="fill:none;stroke:none"
         id="path158" /><path
         d="m 571.789,181.203 0,-0.051 -0.012,-0.039 0,-0.039 -0.007,-0.062 0,-0.129 -0.012,-0.09 0,-0.52 0.012,-0.25 0.027,-0.281 0.031,-0.301 0.039,-0.32 0.063,-0.34 0.066,-0.347 0.102,-0.36 0.109,-0.363 0.129,-0.367 0.16,-0.383 0.184,-0.379 0.207,-0.371 0.242,-0.367 0.129,-0.18 0.14,-0.184 0.149,-0.179 0.152,-0.18 0.168,-0.168 0.172,-0.172 0.18,-0.16 0.187,-0.16 0.203,-0.16 0.207,-0.149 0.223,-0.148 0.231,-0.141 0.238,-0.14 0.25,-0.129 0.262,-0.121 0.277,-0.121 0.281,-0.11 0.289,-0.101 0.313,-0.098 0.316,-0.09 0.332,-0.082 0.352,-0.07 0.347,-0.059 0.371,-0.058 c 8.399,1.019 7.77,8.359 7.77,8.359 l 0,18.199 c 0,0 0.941,7.66 -7.148,8.321 -7.774,-0.27 -7.692,-7.813 -7.692,-7.813 l -0.039,-18.547"
         style="fill:#636360;fill-opacity:1;fill-rule:nonzero;stroke:none"
         id="path160" /><path
         d="m 571.789,181.203 0,-0.051 -0.012,-0.039 0,-0.039 -0.007,-0.062 0,-0.129 -0.012,-0.09 0,-0.52 0.012,-0.25 0.027,-0.281 0.031,-0.301 0.039,-0.32 0.063,-0.34 0.066,-0.347 0.102,-0.36 0.109,-0.363 0.129,-0.367 0.16,-0.383 0.184,-0.379 0.207,-0.371 0.242,-0.367 0.129,-0.18 0.14,-0.184 0.149,-0.179 0.152,-0.18 0.168,-0.168 0.172,-0.172 0.18,-0.16 0.187,-0.16 0.203,-0.16 0.207,-0.149 0.223,-0.148 0.231,-0.141 0.238,-0.14 0.25,-0.129 0.262,-0.121 0.277,-0.121 0.281,-0.11 0.289,-0.101 0.313,-0.098 0.316,-0.09 0.332,-0.082 0.352,-0.07 0.347,-0.059 0.371,-0.058 c 8.399,1.019 7.77,8.359 7.77,8.359 l 0,18.199 c 0,0 0.941,7.66 -7.148,8.321 -7.774,-0.27 -7.692,-7.813 -7.692,-7.813 l -0.039,-18.547 z"
         style="fill:none;stroke:none"
         id="path162" /><path
         d="m 564.129,143.852 0,-0.02 -0.012,-0.019 -0.008,-0.04 -0.019,-0.039 -0.024,-0.05 -0.007,-0.063 -0.032,-0.07 -0.019,-0.078 -0.02,-0.09 -0.05,-0.192 -0.051,-0.23 -0.047,-0.25 -0.051,-0.277 -0.043,-0.301 -0.039,-0.32 -0.019,-0.34 -0.008,-0.352 0,-0.367 0.019,-0.391 0.039,-0.39 0.071,-0.41 0.078,-0.411 0.121,-0.41 0.14,-0.418 0.079,-0.211 0.089,-0.211 0.102,-0.199 0.109,-0.211 0.121,-0.211 0.122,-0.199 0.136,-0.211 0.153,-0.199 0.148,-0.199 0.172,-0.2 0.18,-0.199 0.187,-0.191 0.203,-0.192 0.207,-0.187 0.223,-0.184 0.238,-0.175 0.242,-0.184 0.27,-0.168 0.269,-0.172 0.29,-0.16 0.3,-0.16 0.309,-0.156 0.332,-0.141 0.348,-0.152 c 8.402,-1.051 9.57,6.25 9.57,6.25 l 4.41,17.66 c 0,0 2.781,7.191 -4.918,9.801 -7.621,1.648 -9.34,-5.743 -9.34,-5.743 l -4.57,-17.968"
         style="fill:#636360;fill-opacity:1;fill-rule:nonzero;stroke:none"
         id="path164" /><path
         d="m 564.129,143.852 0,-0.02 -0.012,-0.019 -0.008,-0.04 -0.019,-0.039 -0.024,-0.05 -0.007,-0.063 -0.032,-0.07 -0.019,-0.078 -0.02,-0.09 -0.05,-0.192 -0.051,-0.23 -0.047,-0.25 -0.051,-0.277 -0.043,-0.301 -0.039,-0.32 -0.019,-0.34 -0.008,-0.352 0,-0.367 0.019,-0.391 0.039,-0.39 0.071,-0.41 0.078,-0.411 0.121,-0.41 0.14,-0.418 0.079,-0.211 0.089,-0.211 0.102,-0.199 0.109,-0.211 0.121,-0.211 0.122,-0.199 0.136,-0.211 0.153,-0.199 0.148,-0.199 0.172,-0.2 0.18,-0.199 0.187,-0.191 0.203,-0.192 0.207,-0.187 0.223,-0.184 0.238,-0.175 0.242,-0.184 0.27,-0.168 0.269,-0.172 0.29,-0.16 0.3,-0.16 0.309,-0.156 0.332,-0.141 0.348,-0.152 c 8.402,-1.051 9.57,6.25 9.57,6.25 l 4.41,17.66 c 0,0 2.781,7.191 -4.918,9.801 -7.621,1.648 -9.34,-5.743 -9.34,-5.743 l -4.57,-17.968 z"
         style="fill:none;stroke:none"
         id="path166" /><path
         d="m 551.316,106.863 0,0 -0.007,-0.019 -0.012,-0.024 -0.008,-0.027 -0.019,-0.051 -0.032,-0.051 -0.019,-0.058 -0.031,-0.059 -0.032,-0.082 -0.027,-0.078 -0.07,-0.191 -0.082,-0.219 -0.079,-0.25 -0.07,-0.27 -0.082,-0.293 -0.058,-0.32 -0.059,-0.328 -0.051,-0.359 -0.039,-0.36 -0.019,-0.39 0,-0.403 0.019,-0.398 0.039,-0.422 0.07,-0.43 0.098,-0.429 0.063,-0.211 0.07,-0.219 0.078,-0.219 0.09,-0.219 0.09,-0.222 0.109,-0.211 0.113,-0.219 0.129,-0.2187 0.129,-0.2227 0.153,-0.207 0.148,-0.2188 0.172,-0.2109 0.18,-0.2109 0.187,-0.211 0.211,-0.2109 0.211,-0.1992 0.23,-0.1992 0.25,-0.1993 0.25,-0.2031 0.27,-0.1875 0.289,-0.1914 0.301,-0.1875 0.308,-0.1797 0.332,-0.1836 c 8.239,-1.9101 10.118,5.2034 10.118,5.2034 l 6.25,17.109 c 0,0 3.511,6.871 -3.868,10.27 -7.382,2.418 -9.882,-4.731 -9.882,-4.731 l -6.411,-17.379"
         style="fill:#636360;fill-opacity:1;fill-rule:nonzero;stroke:none"
         id="path168" /><path
         d="m 551.316,106.863 0,0 -0.007,-0.019 -0.012,-0.024 -0.008,-0.027 -0.019,-0.051 -0.032,-0.051 -0.019,-0.058 -0.031,-0.059 -0.032,-0.082 -0.027,-0.078 -0.07,-0.191 -0.082,-0.219 -0.079,-0.25 -0.07,-0.27 -0.082,-0.293 -0.058,-0.32 -0.059,-0.328 -0.051,-0.359 -0.039,-0.36 -0.019,-0.39 0,-0.403 0.019,-0.398 0.039,-0.422 0.07,-0.43 0.098,-0.429 0.063,-0.211 0.07,-0.219 0.078,-0.219 0.09,-0.219 0.09,-0.222 0.109,-0.211 0.113,-0.219 0.129,-0.2187 0.129,-0.2227 0.153,-0.207 0.148,-0.2188 0.172,-0.2109 0.18,-0.2109 0.187,-0.211 0.211,-0.2109 0.211,-0.1992 0.23,-0.1992 0.25,-0.1993 0.25,-0.2031 0.27,-0.1875 0.289,-0.1914 0.301,-0.1875 0.308,-0.1797 0.332,-0.1836 c 8.239,-1.9101 10.118,5.2034 10.118,5.2034 l 6.25,17.109 c 0,0 3.511,6.871 -3.868,10.27 -7.382,2.418 -9.882,-4.731 -9.882,-4.731 l -6.411,-17.379 z"
         style="fill:none;stroke:none"
         id="path170" /><path
         d="m 141.969,91.7656 -9.5,0 0,-86.58982 46.273,0 0,9.74222 -36.773,0 0,76.8476"
         style="fill:#000000;fill-opacity:1;fill-rule:nonzero;stroke:none"
         id="path172" /><path
         d="m 243.039,5.17578 9.60156,0 0,86.5898 -9.60156,0 0,-86.5898 z"
         style="fill:#000000;fill-opacity:1;fill-rule:nonzero;stroke:none"
         id="path174" /><path
         d="m 448.234,44.6133 40.551,0 0,9.7383 -40.551,0 0,27.6757 42.086,0 0,9.7383 -51.586,0 0,-86.58982 53.422,0 0,9.74222 -43.922,0 0,29.6953"
         style="fill:#000000;fill-opacity:1;fill-rule:nonzero;stroke:none"
         id="path176" /><path
         d="m 376.559,64.9219 c -2.961,19.0039 -12.36,28.2695 -28.704,28.2695 -10.011,0 -18.082,-3.6836 -23.597,-10.8086 -6.742,-8.5508 -10.418,-20.9062 -10.418,-34.9219 0,-14.2539 3.777,-26.4843 10.828,-34.9179 5.719,-6.89066 13.074,-10.09769 22.777,-10.09769 18.184,0 28.399,11.40239 30.645,34.32809 l -9.805,0 c -0.816,-5.9414 -1.84,-9.9804 -3.371,-13.4218 -3.066,-7.1289 -9.398,-11.168 -17.367,-11.168 -14.809,0 -24.207,13.7812 -24.207,35.3984 0,22.211 8.988,35.8711 23.39,35.8711 6.028,0 11.645,-2.1406 14.711,-5.4648 2.758,-2.9688 4.289,-6.6524 5.414,-13.0664 l 9.704,0"
         style="fill:#000000;fill-opacity:1;fill-rule:nonzero;stroke:none"
         id="path178" /></g></g></svg>